<?xml version="1.0" encoding="UTF-8" standalone="no"?>
<!-- Created with Inkscape (http://www.inkscape.org/) -->

<svg
   xmlns:dc="http://purl.org/dc/elements/1.1/"
   xmlns:cc="http://creativecommons.org/ns#"
   xmlns:rdf="http://www.w3.org/1999/02/22-rdf-syntax-ns#"
   xmlns:svg="http://www.w3.org/2000/svg"
   xmlns="http://www.w3.org/2000/svg"
   xmlns:sodipodi="http://sodipodi.sourceforge.net/DTD/sodipodi-0.dtd"
   xmlns:inkscape="http://www.inkscape.org/namespaces/inkscape"
   version="1.1"
   id="svg2"
   xml:space="preserve"
   width="672"
   height="672"
   viewBox="0 0 672 672"
   sodipodi:docname="ealpha_h3k27ac_groups.pdf"><metadata
     id="metadata8"><rdf:RDF><cc:Work
         rdf:about=""><dc:format>image/svg+xml</dc:format><dc:type
           rdf:resource="http://purl.org/dc/dcmitype/StillImage" /><dc:title></dc:title></cc:Work></rdf:RDF></metadata><defs
     id="defs6"><clipPath
       clipPathUnits="userSpaceOnUse"
       id="clipPath62"><path
         d="M 38.7,32.79 H 413.61 V 498.52 H 38.7 Z"
         id="path60"
         inkscape:connector-curvature="0" /></clipPath></defs><sodipodi:namedview
     pagecolor="#ffffff"
     bordercolor="#666666"
     borderopacity="1"
     objecttolerance="10"
     gridtolerance="10"
     guidetolerance="10"
     inkscape:pageopacity="0"
     inkscape:pageshadow="2"
     inkscape:window-width="640"
     inkscape:window-height="480"
     id="namedview4"
     showgrid="false" /><g
     id="g10"
     inkscape:groupmode="layer"
     inkscape:label="ealpha_h3k27ac_groups"
     transform="matrix(1.3333333,0,0,-1.3333333,0,672)"><g
       id="g12" /><g
       id="g14" /><g
       id="g16" /><g
       id="g18" /><g
       id="g20" /><g
       id="g22" /><g
       id="g24" /><g
       id="g26" /><g
       id="g28" /><g
       id="g30" /><g
       id="g32" /><g
       id="g34" /><g
       id="g36" /><g
       id="g38" /><g
       id="g40" /><g
       id="g42" /><g
       id="g44" /><g
       id="g46" /><g
       id="g48" /><g
       id="g50" /><g
       id="g52" /><g
       id="g54" /><g
       id="g56"><g
         id="g58"
         clip-path="url(#clipPath62)"><path
           d="M 38.7,121.02 H 413.61"
           style="fill:none;stroke:#ebebeb;stroke-width:0.52999997;stroke-linecap:butt;stroke-linejoin:round;stroke-miterlimit:10;stroke-dasharray:none;stroke-opacity:1"
           id="path64"
           inkscape:connector-curvature="0" /><path
           d="M 38.7,269.11 H 413.61"
           style="fill:none;stroke:#ebebeb;stroke-width:0.52999997;stroke-linecap:butt;stroke-linejoin:round;stroke-miterlimit:10;stroke-dasharray:none;stroke-opacity:1"
           id="path66"
           inkscape:connector-curvature="0" /><path
           d="M 38.7,417.2 H 413.61"
           style="fill:none;stroke:#ebebeb;stroke-width:0.52999997;stroke-linecap:butt;stroke-linejoin:round;stroke-miterlimit:10;stroke-dasharray:none;stroke-opacity:1"
           id="path68"
           inkscape:connector-curvature="0" /><path
           d="M 38.7,46.97 H 413.61"
           style="fill:none;stroke:#ebebeb;stroke-width:1.07000005;stroke-linecap:butt;stroke-linejoin:round;stroke-miterlimit:10;stroke-dasharray:none;stroke-opacity:1"
           id="path70"
           inkscape:connector-curvature="0" /><path
           d="M 38.7,195.06 H 413.61"
           style="fill:none;stroke:#ebebeb;stroke-width:1.07000005;stroke-linecap:butt;stroke-linejoin:round;stroke-miterlimit:10;stroke-dasharray:none;stroke-opacity:1"
           id="path72"
           inkscape:connector-curvature="0" /><path
           d="M 38.7,343.15 H 413.61"
           style="fill:none;stroke:#ebebeb;stroke-width:1.07000005;stroke-linecap:butt;stroke-linejoin:round;stroke-miterlimit:10;stroke-dasharray:none;stroke-opacity:1"
           id="path74"
           inkscape:connector-curvature="0" /><path
           d="M 38.7,491.24 H 413.61"
           style="fill:none;stroke:#ebebeb;stroke-width:1.07000005;stroke-linecap:butt;stroke-linejoin:round;stroke-miterlimit:10;stroke-dasharray:none;stroke-opacity:1"
           id="path76"
           inkscape:connector-curvature="0" /><path
           d="M 92.26,32.79 V 498.52"
           style="fill:none;stroke:#ebebeb;stroke-width:1.07000005;stroke-linecap:butt;stroke-linejoin:round;stroke-miterlimit:10;stroke-dasharray:none;stroke-opacity:1"
           id="path78"
           inkscape:connector-curvature="0" /><path
           d="M 181.52,32.79 V 498.52"
           style="fill:none;stroke:#ebebeb;stroke-width:1.07000005;stroke-linecap:butt;stroke-linejoin:round;stroke-miterlimit:10;stroke-dasharray:none;stroke-opacity:1"
           id="path80"
           inkscape:connector-curvature="0" /><path
           d="M 270.79,32.79 V 498.52"
           style="fill:none;stroke:#ebebeb;stroke-width:1.07000005;stroke-linecap:butt;stroke-linejoin:round;stroke-miterlimit:10;stroke-dasharray:none;stroke-opacity:1"
           id="path82"
           inkscape:connector-curvature="0" /><path
           d="M 360.05,32.79 V 498.52"
           style="fill:none;stroke:#ebebeb;stroke-width:1.07000005;stroke-linecap:butt;stroke-linejoin:round;stroke-miterlimit:10;stroke-dasharray:none;stroke-opacity:1"
           id="path84"
           inkscape:connector-curvature="0" /><path
           d="m 76.87,175.27 -0.06,0.41 -0.05,0.4 -0.03,0.41 -0.02,0.41 v 0.4 0.41 l 0.02,0.41 0.04,0.41 0.04,0.4 0.06,0.41 0.08,0.41 0.08,0.41 0.09,0.4 0.11,0.41 0.12,0.41 0.13,0.4 0.14,0.41 0.15,0.41 0.16,0.41 0.17,0.4 0.18,0.41 0.18,0.41 0.19,0.41 0.2,0.4 0.21,0.41 0.21,0.41 0.21,0.4 0.22,0.41 0.22,0.41 0.23,0.41 0.23,0.4 0.22,0.41 0.23,0.41 0.23,0.41 0.23,0.4 0.23,0.41 0.22,0.41 0.22,0.4 0.22,0.41 0.21,0.41 0.21,0.41 0.21,0.4 0.2,0.41 0.19,0.41 0.18,0.41 0.18,0.4 0.17,0.41 0.16,0.41 0.15,0.4 0.14,0.41 0.13,0.41 0.12,0.41 0.11,0.4 0.1,0.41 0.09,0.41 0.07,0.41 0.07,0.4 0.04,0.41 0.04,0.41 0.03,0.4 0.01,0.41 v 0.41 l -0.02,0.41 -0.03,0.4 -0.04,0.41 -0.06,0.41 -0.07,0.41 -0.08,0.4 -0.1,0.41 -0.11,0.41 -0.12,0.4 -0.14,0.41 -0.16,0.41 -0.16,0.41 -0.18,0.4 -0.19,0.41 -0.2,0.41 -0.22,0.41 -0.23,0.4 -0.24,0.41 -0.26,0.41 -0.27,0.4 -0.27,0.41 -0.29,0.41 -0.3,0.41 -0.31,0.4 -0.33,0.41 -0.33,0.41 -0.34,0.41 -0.35,0.4 -0.36,0.41 -0.36,0.41 -0.38,0.4 -0.39,0.41 -0.39,0.41 -0.4,0.41 -0.4,0.4 -0.41,0.41 -0.42,0.41 -0.42,0.41 -0.43,0.4 -0.43,0.41 -0.43,0.41 -0.44,0.4 -0.44,0.41 -0.45,0.41 -0.44,0.41 -0.45,0.4 -0.45,0.41 -0.45,0.41 -0.45,0.41 -0.45,0.4 -0.45,0.41 -0.45,0.41 -0.45,0.4 -0.44,0.41 -0.45,0.41 -0.44,0.41 -0.44,0.4 -0.43,0.41 -0.43,0.41 -0.43,0.41 -0.42,0.4 -0.42,0.41 -0.41,0.41 -0.4,0.4 -0.41,0.41 -0.39,0.41 -0.39,0.41 -0.38,0.4 -0.37,0.41 -0.37,0.41 -0.36,0.41 -0.35,0.4 -0.34,0.41 -0.34,0.41 -0.33,0.4 -0.32,0.41 -0.31,0.41 -0.3,0.41 -0.29,0.4 -0.29,0.41 -0.27,0.41 -0.27,0.41 -0.25,0.4 -0.25,0.41 -0.24,0.41 -0.23,0.4 -0.22,0.41 -0.22,0.41 -0.2,0.41 -0.19,0.4 -0.19,0.41 -0.18,0.41 -0.16,0.41 -0.17,0.4 -0.15,0.41 -0.14,0.41 -0.14,0.4 -0.13,0.41 -0.12,0.41 -0.11,0.41 -0.11,0.4 -0.09,0.41 -0.1,0.41 -0.08,0.41 -0.08,0.4 -0.08,0.41 -0.06,0.41 -0.06,0.4 -0.06,0.41 -0.05,0.41 -0.05,0.41 -0.04,0.4 -0.03,0.41 -0.04,0.41 -0.03,0.41 -0.02,0.4 -0.02,0.41 -0.02,0.41 -0.01,0.4 -0.01,0.41 -0.01,0.41 -0.01,0.41 v 0.4 0.41 0.41 0.41 l 0.01,0.4 v 0.41 l 0.01,0.41 0.01,0.4 0.01,0.41 0.01,0.41 0.01,0.41 0.01,0.4 0.02,0.41 0.01,0.41 0.02,0.41 0.01,0.4 0.02,0.41 0.01,0.41 0.02,0.4 0.01,0.41 0.02,0.41 0.01,0.41 0.02,0.4 0.02,0.41 0.01,0.41 0.02,0.41 0.02,0.4 0.01,0.41 0.02,0.41 0.02,0.4 0.02,0.41 0.01,0.41 0.02,0.41 0.02,0.4 0.02,0.41 0.02,0.41 0.02,0.41 0.02,0.4 0.02,0.41 0.02,0.41 0.02,0.4 0.03,0.41 0.02,0.41 0.03,0.41 0.02,0.4 0.03,0.41 0.03,0.41 0.02,0.41 0.03,0.4 0.04,0.41 0.03,0.41 0.03,0.4 0.04,0.41 0.03,0.41 0.04,0.41 0.04,0.4 0.04,0.41 0.04,0.41 0.05,0.41 0.04,0.4 0.05,0.41 0.05,0.41 0.05,0.4 0.05,0.41 0.06,0.41 0.05,0.41 0.06,0.4 0.06,0.41 0.06,0.41 0.06,0.41 0.06,0.4 0.07,0.41 0.06,0.41 0.07,0.4 0.07,0.41 0.07,0.41 0.07,0.41 0.08,0.4 0.07,0.41 0.08,0.41 0.07,0.41 0.08,0.4 0.08,0.41 0.07,0.41 0.08,0.4 0.08,0.41 0.08,0.41 0.08,0.41 0.08,0.4 0.08,0.41 0.09,0.41 0.08,0.41 0.08,0.4 0.07,0.41 0.08,0.41 0.08,0.4 0.08,0.41 0.08,0.41 0.07,0.41 0.07,0.4 0.08,0.41 0.07,0.41 0.07,0.41 0.06,0.4 0.07,0.41 0.06,0.41 0.06,0.4 0.06,0.41 0.05,0.41 0.05,0.41 0.05,0.4 0.04,0.41 0.05,0.41 0.03,0.41 0.04,0.4 0.03,0.41 0.02,0.41 0.02,0.4 0.02,0.41 0.01,0.41 0.01,0.41 v 0.4 0.41 l -0.01,0.41 -0.01,0.41 -0.02,0.4 -0.02,0.41 -0.04,0.41 -0.03,0.4 -0.04,0.41 -0.05,0.41 -0.05,0.41 -0.06,0.4 -0.06,0.41 -0.07,0.41 -0.08,0.41 -0.08,0.4 -0.09,0.41 -0.1,0.41 -0.1,0.4 -0.1,0.41 -0.11,0.41 -0.12,0.41 -0.12,0.4 -0.13,0.41 -0.13,0.41 -0.14,0.41 -0.14,0.4 -0.15,0.41 -0.15,0.41 -0.15,0.4 -0.16,0.41 -0.16,0.41 -0.16,0.41 -0.17,0.4 -0.16,0.41 -0.17,0.41 -0.18,0.41 -0.17,0.4 -0.17,0.41 -0.17,0.41 -0.17,0.4 -0.17,0.41 -0.17,0.41 -0.17,0.41 -0.16,0.4 -0.16,0.41 -0.16,0.41 -0.15,0.41 -0.15,0.4 -0.14,0.41 -0.13,0.41 -0.13,0.4 -0.13,0.41 -0.11,0.41 -0.11,0.41 -0.1,0.4 -0.08,0.41 -0.08,0.41 -0.07,0.41 -0.06,0.4 -0.04,0.41 -0.04,0.41 -0.02,0.4 -0.01,0.41 v 0.41 l 0.02,0.41 0.03,0.4 0.04,0.41 0.06,0.41 0.07,0.41 0.08,0.4 0.1,0.41 0.11,0.41 0.13,0.4 0.15,0.41 0.15,0.41 0.17,0.41 0.19,0.4 0.19,0.41 0.21,0.41 0.23,0.41 0.23,0.4 0.26,0.41 0.26,0.41 0.27,0.4 0.29,0.41 0.3,0.41 0.31,0.41 0.32,0.4 0.32,0.41 0.34,0.41 0.34,0.41 0.36,0.4 0.36,0.41 0.36,0.41 0.37,0.4 0.38,0.41 0.38,0.41 0.39,0.41 0.39,0.4 0.39,0.41 0.39,0.41 0.39,0.41 0.4,0.4 0.39,0.41 0.39,0.41 0.39,0.4 0.39,0.41 0.39,0.41 0.38,0.41 0.38,0.4 0.38,0.41 0.37,0.41 0.36,0.41 0.36,0.4 0.35,0.41 0.35,0.41 0.34,0.4 0.33,0.41 0.32,0.41 0.32,0.41 0.3,0.4 0.31,0.41 0.28,0.41 0.29,0.41 0.27,0.4 0.26,0.41 0.26,0.41 0.25,0.4 0.23,0.41 0.23,0.41 0.22,0.41 0.21,0.4 0.2,0.41 0.19,0.41 0.18,0.41 0.18,0.4 0.16,0.41 0.16,0.41 0.15,0.4 0.14,0.41 0.14,0.41 0.13,0.41 0.12,0.4 0.11,0.41 0.11,0.41 0.1,0.41 0.1,0.4 0.09,0.41 0.08,0.41 0.09,0.4 0.07,0.41 0.07,0.41 0.07,0.41 0.07,0.4 0.06,0.41 0.05,0.41 0.06,0.41 0.05,0.4 0.06,0.41 0.05,0.41 0.05,0.4 0.04,0.41 0.05,0.41 0.05,0.41 0.05,0.4 0.04,0.41 0.05,0.41 0.05,0.41 0.05,0.4 0.05,0.41 0.06,0.41 0.05,0.4 0.06,0.41 0.06,0.41 0.06,0.41 0.07,0.4 0.07,0.41 0.07,0.41 0.08,0.41 0.08,0.4 0.08,0.41 0.09,0.41 0.09,0.4 0.1,0.41 0.1,0.41 0.11,0.41 0.11,0.4 0.11,0.41 0.12,0.41 0.13,0.41 0.13,0.4 0.13,0.41 0.15,0.41 0.14,0.4 0.15,0.41 0.16,0.41 0.16,0.41 0.16,0.4 0.17,0.41 0.18,0.41 0.18,0.41 0.18,0.4 0.19,0.41 0.19,0.41 0.2,0.4 h 26.9 l 0.2,-0.4 0.19,-0.41 0.19,-0.41 0.18,-0.4 0.18,-0.41 0.18,-0.41 0.17,-0.41 0.16,-0.4 0.16,-0.41 0.16,-0.41 0.15,-0.41 0.14,-0.4 0.14,-0.41 0.14,-0.41 0.13,-0.4 0.13,-0.41 0.11,-0.41 0.12,-0.41 0.11,-0.4 0.11,-0.41 0.1,-0.41 0.1,-0.41 0.09,-0.4 0.09,-0.41 0.08,-0.41 0.08,-0.4 0.08,-0.41 0.07,-0.41 0.07,-0.41 0.06,-0.4 0.07,-0.41 0.06,-0.41 0.06,-0.41 0.05,-0.4 0.06,-0.41 0.05,-0.41 0.05,-0.4 0.05,-0.41 0.05,-0.41 0.04,-0.41 0.05,-0.4 0.05,-0.41 0.05,-0.41 0.04,-0.41 0.05,-0.4 0.05,-0.41 0.05,-0.41 0.06,-0.4 0.05,-0.41 0.06,-0.41 0.06,-0.41 0.07,-0.4 0.07,-0.41 0.07,-0.41 0.07,-0.41 0.08,-0.4 0.09,-0.41 0.09,-0.41 0.1,-0.4 0.1,-0.41 0.11,-0.41 0.11,-0.41 0.12,-0.4 0.13,-0.41 0.13,-0.41 0.15,-0.41 0.15,-0.4 0.16,-0.41 0.16,-0.41 0.18,-0.4 0.18,-0.41 0.19,-0.41 0.2,-0.41 0.21,-0.4 0.22,-0.41 0.23,-0.41 0.23,-0.41 0.25,-0.4 0.26,-0.41 0.26,-0.41 0.27,-0.4 0.29,-0.41 0.28,-0.41 0.3,-0.41 0.31,-0.4 0.32,-0.41 0.32,-0.41 0.33,-0.41 0.34,-0.4 0.35,-0.41 0.35,-0.41 0.36,-0.4 0.36,-0.41 0.37,-0.41 0.38,-0.41 0.38,-0.4 0.38,-0.41 0.39,-0.41 0.39,-0.41 0.39,-0.4 0.39,-0.41 0.39,-0.41 0.4,-0.4 0.39,-0.41 0.39,-0.41 0.39,-0.41 0.39,-0.4 0.39,-0.41 0.38,-0.41 0.38,-0.41 0.37,-0.4 0.36,-0.41 0.36,-0.41 0.35,-0.4 0.35,-0.41 0.34,-0.41 0.32,-0.41 0.32,-0.4 0.31,-0.41 0.3,-0.41 0.29,-0.41 0.27,-0.4 0.26,-0.41 0.26,-0.41 0.23,-0.4 0.22,-0.41 0.22,-0.41 0.19,-0.41 0.19,-0.4 0.17,-0.41 0.15,-0.41 0.15,-0.41 0.13,-0.4 0.11,-0.41 0.1,-0.41 0.08,-0.4 0.07,-0.41 0.06,-0.41 0.04,-0.41 0.03,-0.4 0.02,-0.41 v -0.41 l -0.01,-0.41 -0.02,-0.4 -0.04,-0.41 -0.05,-0.41 -0.05,-0.4 -0.07,-0.41 -0.08,-0.41 -0.09,-0.41 -0.09,-0.4 -0.11,-0.41 -0.11,-0.41 -0.13,-0.41 -0.13,-0.4 -0.13,-0.41 -0.14,-0.41 -0.15,-0.4 -0.15,-0.41 -0.16,-0.41 -0.16,-0.41 -0.16,-0.4 -0.17,-0.41 -0.17,-0.41 -0.17,-0.41 -0.17,-0.4 -0.17,-0.41 -0.17,-0.41 -0.18,-0.4 -0.17,-0.41 -0.17,-0.41 -0.16,-0.41 -0.17,-0.4 -0.16,-0.41 -0.16,-0.41 -0.16,-0.41 -0.15,-0.4 -0.15,-0.41 -0.15,-0.41 -0.14,-0.4 -0.14,-0.41 -0.13,-0.41 -0.13,-0.41 -0.12,-0.4 -0.12,-0.41 -0.11,-0.41 -0.1,-0.41 -0.1,-0.4 -0.1,-0.41 -0.09,-0.41 -0.08,-0.4 -0.08,-0.41 -0.07,-0.41 -0.06,-0.41 -0.06,-0.4 -0.05,-0.41 -0.05,-0.41 -0.04,-0.41 -0.04,-0.4 -0.03,-0.41 -0.02,-0.41 -0.02,-0.4 -0.01,-0.41 -0.01,-0.41 v -0.41 -0.4 l 0.01,-0.41 0.01,-0.41 0.02,-0.41 0.02,-0.4 0.02,-0.41 0.03,-0.41 0.04,-0.4 0.03,-0.41 0.04,-0.41 0.05,-0.41 0.05,-0.4 0.05,-0.41 0.05,-0.41 0.06,-0.41 0.06,-0.4 0.06,-0.41 0.07,-0.41 0.06,-0.4 0.07,-0.41 0.07,-0.41 0.07,-0.41 0.08,-0.4 0.07,-0.41 0.08,-0.41 0.08,-0.41 0.08,-0.4 0.07,-0.41 0.08,-0.41 0.08,-0.4 0.08,-0.41 0.08,-0.41 0.09,-0.41 0.08,-0.4 0.08,-0.41 0.08,-0.41 0.08,-0.41 0.07,-0.4 0.08,-0.41 0.08,-0.41 0.08,-0.4 0.07,-0.41 0.08,-0.41 0.07,-0.41 0.08,-0.4 0.07,-0.41 0.07,-0.41 0.07,-0.41 0.06,-0.4 0.07,-0.41 0.07,-0.41 0.06,-0.4 0.06,-0.41 0.06,-0.41 0.06,-0.41 0.06,-0.4 0.05,-0.41 0.06,-0.41 0.05,-0.41 0.05,-0.4 0.05,-0.41 0.05,-0.41 0.04,-0.4 0.04,-0.41 0.05,-0.41 0.04,-0.41 0.04,-0.4 0.04,-0.41 0.03,-0.41 0.04,-0.41 0.03,-0.4 0.03,-0.41 0.03,-0.41 0.03,-0.4 0.03,-0.41 0.03,-0.41 0.03,-0.41 0.02,-0.4 0.03,-0.41 0.02,-0.41 0.02,-0.41 0.03,-0.4 0.02,-0.41 0.02,-0.41 0.02,-0.4 0.02,-0.41 0.02,-0.41 0.02,-0.41 0.02,-0.4 0.01,-0.41 0.02,-0.41 0.02,-0.41 0.02,-0.4 0.01,-0.41 0.02,-0.41 0.02,-0.4 0.02,-0.41 0.01,-0.41 0.02,-0.41 0.01,-0.4 0.02,-0.41 0.02,-0.41 0.01,-0.41 0.02,-0.4 0.01,-0.41 0.02,-0.41 0.01,-0.4 0.02,-0.41 0.01,-0.41 0.01,-0.41 0.02,-0.4 0.01,-0.41 0.01,-0.41 0.01,-0.41 0.01,-0.4 0.01,-0.41 v -0.41 l 0.01,-0.4 v -0.41 -0.41 -0.41 -0.4 l -0.01,-0.41 -0.01,-0.41 -0.01,-0.41 -0.01,-0.4 -0.02,-0.41 -0.02,-0.41 -0.03,-0.4 -0.02,-0.41 -0.04,-0.41 -0.03,-0.41 -0.04,-0.4 -0.05,-0.41 -0.05,-0.41 -0.06,-0.41 -0.06,-0.4 -0.06,-0.41 -0.08,-0.41 -0.08,-0.4 -0.08,-0.41 -0.1,-0.41 -0.1,-0.41 -0.1,-0.4 -0.11,-0.41 -0.13,-0.41 -0.12,-0.41 -0.14,-0.4 -0.14,-0.41 -0.15,-0.41 -0.17,-0.4 -0.16,-0.41 -0.18,-0.41 -0.19,-0.41 -0.19,-0.4 -0.21,-0.41 -0.21,-0.41 -0.22,-0.41 -0.23,-0.4 -0.24,-0.41 -0.25,-0.41 -0.25,-0.4 -0.27,-0.41 -0.28,-0.41 -0.28,-0.41 -0.29,-0.4 -0.3,-0.41 -0.32,-0.41 -0.31,-0.41 -0.33,-0.4 -0.34,-0.41 -0.34,-0.41 -0.35,-0.4 -0.36,-0.41 -0.37,-0.41 -0.37,-0.41 -0.38,-0.4 -0.39,-0.41 -0.39,-0.41 -0.41,-0.41 -0.4,-0.4 -0.41,-0.41 -0.42,-0.41 -0.42,-0.4 -0.43,-0.41 -0.43,-0.41 -0.43,-0.41 -0.44,-0.4 -0.44,-0.41 -0.45,-0.41 -0.44,-0.41 -0.45,-0.4 -0.45,-0.41 -0.45,-0.41 -0.45,-0.4 -0.45,-0.41 -0.45,-0.41 -0.45,-0.41 -0.45,-0.4 -0.44,-0.41 -0.45,-0.41 -0.44,-0.41 -0.44,-0.4 -0.43,-0.41 -0.43,-0.41 -0.43,-0.4 -0.42,-0.41 -0.42,-0.41 -0.41,-0.41 -0.41,-0.4 -0.39,-0.41 -0.4,-0.41 -0.38,-0.41 -0.38,-0.4 -0.36,-0.41 -0.36,-0.41 -0.35,-0.4 -0.34,-0.41 -0.33,-0.41 -0.33,-0.41 -0.31,-0.4 -0.3,-0.41 -0.29,-0.41 -0.27,-0.41 -0.27,-0.4 -0.26,-0.41 -0.24,-0.41 -0.23,-0.4 -0.22,-0.41 -0.2,-0.41 -0.19,-0.41 -0.18,-0.4 -0.17,-0.41 -0.15,-0.41 -0.14,-0.41 -0.12,-0.4 -0.11,-0.41 -0.1,-0.41 -0.08,-0.4 -0.07,-0.41 -0.06,-0.41 -0.04,-0.41 -0.03,-0.4 -0.02,-0.41 v -0.41 l 0.01,-0.41 0.03,-0.4 0.04,-0.41 0.04,-0.41 0.07,-0.4 0.07,-0.41 0.09,-0.41 0.1,-0.41 0.11,-0.4 0.12,-0.41 0.13,-0.41 0.14,-0.41 0.15,-0.4 0.16,-0.41 0.17,-0.41 0.18,-0.4 0.18,-0.41 0.19,-0.41 0.2,-0.41 0.21,-0.4 0.2,-0.41 0.22,-0.41 0.22,-0.41 0.22,-0.4 0.22,-0.41 0.23,-0.41 0.23,-0.4 0.23,-0.41 0.23,-0.41 0.22,-0.41 0.23,-0.4 0.23,-0.41 0.22,-0.41 0.22,-0.41 0.21,-0.4 0.21,-0.41 0.21,-0.41 0.19,-0.4 0.2,-0.41 0.18,-0.41 0.18,-0.41 0.17,-0.4 0.16,-0.41 0.15,-0.41 0.14,-0.41 0.13,-0.4 0.12,-0.41 0.11,-0.41 0.09,-0.4 0.08,-0.41 0.08,-0.41 0.05,-0.41 0.05,-0.4 0.04,-0.41 0.01,-0.41 0.01,-0.41 v -0.4 l -0.02,-0.41 -0.03,-0.41 -0.05,-0.4 -0.06,-0.41 z"
           style="fill:#a4a4a4;fill-opacity:1;fill-rule:nonzero;stroke:#8b0000;stroke-width:1.07000005;stroke-linecap:round;stroke-linejoin:round;stroke-miterlimit:10;stroke-dasharray:none;stroke-opacity:1"
           id="path86"
           inkscape:connector-curvature="0" /><path
           d="m 148.16,111.92 -0.03,0.19 -0.03,0.19 -0.02,0.19 -0.02,0.2 v 0.19 0.19 l 0.01,0.19 0.02,0.2 0.03,0.19 0.03,0.19 0.04,0.19 0.06,0.2 0.05,0.19 0.07,0.19 0.07,0.19 0.08,0.2 0.09,0.19 0.09,0.19 0.11,0.19 0.11,0.2 0.11,0.19 0.13,0.19 0.13,0.19 0.14,0.2 0.14,0.19 0.16,0.19 0.15,0.19 0.17,0.2 0.17,0.19 0.18,0.19 0.18,0.19 0.19,0.19 0.2,0.2 0.2,0.19 0.21,0.19 0.21,0.19 0.22,0.2 0.22,0.19 0.23,0.19 0.23,0.19 0.24,0.2 0.24,0.19 0.25,0.19 0.25,0.19 0.25,0.2 0.26,0.19 0.27,0.19 0.26,0.19 0.27,0.2 0.28,0.19 0.27,0.19 0.28,0.19 0.28,0.2 0.29,0.19 0.28,0.19 0.29,0.19 0.29,0.2 0.29,0.19 0.3,0.19 0.29,0.19 0.3,0.2 0.3,0.19 0.3,0.19 0.3,0.19 0.3,0.2 0.3,0.19 0.3,0.19 0.3,0.19 0.3,0.2 0.3,0.19 0.3,0.19 0.3,0.19 0.3,0.2 0.3,0.19 0.3,0.19 0.29,0.19 0.3,0.2 0.29,0.19 0.29,0.19 0.29,0.19 0.29,0.2 0.28,0.19 0.29,0.19 0.28,0.19 0.28,0.2 0.27,0.19 0.28,0.19 0.27,0.19 0.27,0.2 0.26,0.19 0.26,0.19 0.26,0.19 0.26,0.2 0.25,0.19 0.25,0.19 0.24,0.19 0.24,0.2 0.24,0.19 0.23,0.19 0.23,0.19 0.23,0.2 0.22,0.19 0.21,0.19 0.21,0.19 0.21,0.2 0.21,0.19 0.2,0.19 0.19,0.19 0.19,0.2 0.18,0.19 0.19,0.19 0.17,0.19 0.17,0.2 0.17,0.19 0.16,0.19 0.15,0.19 0.16,0.2 0.14,0.19 0.14,0.19 0.14,0.19 0.13,0.2 0.13,0.19 0.12,0.19 0.11,0.19 0.12,0.2 0.1,0.19 0.1,0.19 0.1,0.19 0.09,0.2 0.08,0.19 0.08,0.19 0.08,0.19 0.07,0.2 0.06,0.19 0.06,0.19 0.06,0.19 0.05,0.2 0.04,0.19 0.04,0.19 0.03,0.19 0.03,0.2 0.03,0.19 0.02,0.19 0.01,0.19 0.01,0.2 v 0.19 0.19 0.19 l -0.01,0.2 -0.02,0.19 -0.02,0.19 -0.02,0.19 -0.03,0.2 -0.04,0.19 -0.04,0.19 -0.04,0.19 -0.05,0.2 -0.05,0.19 -0.06,0.19 -0.06,0.19 -0.07,0.2 -0.06,0.19 -0.08,0.19 -0.08,0.19 -0.08,0.2 -0.09,0.19 -0.09,0.19 -0.09,0.19 -0.1,0.2 -0.11,0.19 -0.11,0.19 -0.11,0.19 -0.11,0.2 -0.12,0.19 -0.12,0.19 -0.13,0.19 -0.13,0.2 -0.13,0.19 -0.14,0.19 -0.14,0.19 -0.14,0.2 -0.15,0.19 -0.15,0.19 -0.15,0.19 -0.16,0.2 -0.16,0.19 -0.16,0.19 -0.17,0.19 -0.17,0.2 -0.17,0.19 -0.17,0.19 -0.18,0.19 -0.18,0.19 -0.18,0.2 -0.18,0.19 -0.19,0.19 -0.19,0.19 -0.19,0.2 -0.2,0.19 -0.19,0.19 -0.2,0.19 -0.2,0.2 -0.21,0.19 -0.2,0.19 -0.21,0.19 -0.21,0.2 -0.21,0.19 -0.21,0.19 -0.21,0.19 -0.22,0.2 -0.22,0.19 -0.22,0.19 -0.22,0.19 -0.22,0.2 -0.22,0.19 -0.23,0.19 -0.22,0.19 -0.23,0.2 -0.23,0.19 -0.23,0.19 -0.23,0.19 -0.23,0.2 -0.23,0.19 -0.23,0.19 -0.24,0.19 -0.23,0.2 -0.24,0.19 -0.23,0.19 -0.24,0.19 -0.24,0.2 -0.24,0.19 -0.23,0.19 -0.24,0.19 -0.24,0.2 -0.24,0.19 -0.24,0.19 -0.24,0.19 -0.24,0.2 -0.24,0.19 -0.24,0.19 -0.25,0.19 -0.24,0.2 -0.24,0.19 -0.24,0.19 -0.24,0.19 -0.24,0.2 -0.24,0.19 -0.25,0.19 -0.24,0.19 -0.24,0.2 -0.24,0.19 -0.24,0.19 -0.24,0.19 -0.24,0.2 -0.24,0.19 -0.24,0.19 -0.23,0.19 -0.24,0.2 -0.24,0.19 -0.24,0.19 -0.23,0.19 -0.24,0.2 -0.23,0.19 -0.24,0.19 -0.23,0.19 -0.24,0.2 -0.23,0.19 -0.23,0.19 -0.23,0.19 -0.23,0.2 -0.23,0.19 -0.23,0.19 -0.23,0.19 -0.22,0.2 -0.23,0.19 -0.22,0.19 -0.22,0.19 -0.22,0.2 -0.23,0.19 -0.21,0.19 -0.22,0.19 -0.22,0.2 -0.21,0.19 -0.22,0.19 -0.21,0.19 -0.21,0.2 -0.21,0.19 -0.21,0.19 -0.2,0.19 -0.21,0.2 -0.2,0.19 -0.2,0.19 -0.2,0.19 -0.19,0.2 -0.2,0.19 -0.19,0.19 -0.19,0.19 -0.19,0.2 -0.18,0.19 -0.19,0.19 -0.18,0.19 -0.18,0.2 -0.17,0.19 -0.18,0.19 -0.17,0.19 -0.16,0.2 -0.17,0.19 -0.16,0.19 -0.16,0.19 -0.16,0.2 -0.15,0.19 -0.15,0.19 -0.15,0.19 -0.14,0.2 -0.14,0.19 -0.14,0.19 -0.13,0.19 -0.13,0.2 -0.13,0.19 -0.12,0.19 -0.11,0.19 -0.12,0.2 -0.11,0.19 -0.1,0.19 -0.11,0.19 -0.09,0.2 -0.1,0.19 -0.09,0.19 -0.08,0.19 -0.08,0.2 -0.08,0.19 -0.07,0.19 -0.07,0.19 -0.06,0.2 -0.06,0.19 -0.05,0.19 -0.05,0.19 -0.04,0.2 -0.04,0.19 -0.03,0.19 -0.03,0.19 -0.02,0.2 -0.02,0.19 -0.01,0.19 -0.01,0.19 v 0.2 0.19 0.19 l 0.02,0.19 0.01,0.2 0.03,0.19 0.03,0.19 0.03,0.19 0.04,0.2 0.04,0.19 0.05,0.19 0.05,0.19 0.06,0.19 0.07,0.2 0.07,0.19 0.07,0.19 0.08,0.19 0.08,0.2 0.09,0.19 0.1,0.19 0.09,0.19 0.11,0.2 0.11,0.19 0.11,0.19 0.12,0.19 0.12,0.2 0.12,0.19 0.14,0.19 0.13,0.19 0.14,0.2 0.14,0.19 0.15,0.19 0.15,0.19 0.16,0.2 0.15,0.19 0.17,0.19 0.16,0.19 0.17,0.2 0.17,0.19 0.18,0.19 0.18,0.19 0.18,0.2 0.18,0.19 0.19,0.19 0.19,0.19 0.19,0.2 0.19,0.19 0.2,0.19 0.2,0.19 0.2,0.2 0.2,0.19 0.2,0.19 0.21,0.19 0.21,0.2 0.2,0.19 0.21,0.19 0.21,0.19 0.21,0.2 0.21,0.19 0.21,0.19 0.22,0.19 0.21,0.2 0.21,0.19 0.21,0.19 0.21,0.19 0.22,0.2 0.21,0.19 0.21,0.19 0.21,0.19 0.21,0.2 0.21,0.19 0.2,0.19 0.21,0.19 0.2,0.2 0.21,0.19 0.2,0.19 0.2,0.19 0.2,0.2 0.2,0.19 0.19,0.19 0.2,0.19 0.19,0.2 0.19,0.19 0.19,0.19 0.18,0.19 0.19,0.2 0.18,0.19 0.18,0.19 0.17,0.19 0.17,0.2 0.18,0.19 0.16,0.19 0.17,0.19 0.16,0.2 0.16,0.19 0.16,0.19 0.16,0.19 0.15,0.2 0.15,0.19 0.14,0.19 0.15,0.19 0.13,0.2 0.14,0.19 0.14,0.19 0.13,0.19 0.13,0.2 0.13,0.19 0.12,0.19 0.12,0.19 0.12,0.2 0.11,0.19 0.12,0.19 0.11,0.19 0.11,0.2 0.1,0.19 0.1,0.19 0.11,0.19 0.09,0.2 0.1,0.19 0.09,0.19 0.1,0.19 0.09,0.2 0.08,0.19 0.09,0.19 0.08,0.19 0.09,0.2 0.08,0.19 0.08,0.19 0.07,0.19 0.08,0.2 0.08,0.19 0.07,0.19 0.07,0.19 0.07,0.2 0.07,0.19 0.07,0.19 0.07,0.19 0.07,0.2 0.07,0.19 0.07,0.19 0.06,0.19 0.07,0.2 0.07,0.19 0.06,0.19 0.07,0.19 0.06,0.2 0.07,0.19 0.07,0.19 0.06,0.19 0.07,0.2 0.07,0.19 0.07,0.19 0.07,0.19 0.07,0.2 0.07,0.19 0.07,0.19 0.07,0.19 0.07,0.2 0.08,0.19 0.07,0.19 0.08,0.19 0.08,0.2 0.08,0.19 0.08,0.19 0.08,0.19 0.08,0.2 h 38.33 l 0.08,-0.2 0.08,-0.19 0.08,-0.19 0.08,-0.19 0.08,-0.2 0.08,-0.19 0.07,-0.19 0.08,-0.19 0.07,-0.2 0.07,-0.19 0.07,-0.19 0.07,-0.19 0.07,-0.2 0.07,-0.19 0.07,-0.19 0.07,-0.19 0.06,-0.2 0.07,-0.19 0.07,-0.19 0.06,-0.19 0.07,-0.2 0.07,-0.19 0.06,-0.19 0.07,-0.19 0.07,-0.2 0.06,-0.19 0.07,-0.19 0.07,-0.19 0.07,-0.2 0.06,-0.19 0.07,-0.19 0.08,-0.19 0.07,-0.2 0.07,-0.19 0.07,-0.19 0.08,-0.19 0.07,-0.2 0.08,-0.19 0.08,-0.19 0.08,-0.19 0.08,-0.2 0.09,-0.19 0.08,-0.19 0.09,-0.19 0.09,-0.2 0.1,-0.19 0.09,-0.19 0.1,-0.19 0.09,-0.2 0.1,-0.19 0.11,-0.19 0.1,-0.19 0.11,-0.2 0.11,-0.19 0.11,-0.19 0.12,-0.19 0.12,-0.2 0.12,-0.19 0.12,-0.19 0.13,-0.19 0.13,-0.2 0.13,-0.19 0.14,-0.19 0.13,-0.19 0.14,-0.2 0.15,-0.19 0.14,-0.19 0.15,-0.19 0.15,-0.2 0.16,-0.19 0.16,-0.19 0.16,-0.19 0.16,-0.2 0.17,-0.19 0.16,-0.19 0.17,-0.19 0.18,-0.2 0.17,-0.19 0.18,-0.19 0.18,-0.19 0.18,-0.2 0.19,-0.19 0.19,-0.19 0.19,-0.19 0.19,-0.2 0.19,-0.19 0.2,-0.19 0.2,-0.19 0.2,-0.2 0.2,-0.19 0.2,-0.19 0.2,-0.19 0.21,-0.2 0.21,-0.19 0.2,-0.19 0.21,-0.19 0.21,-0.2 0.21,-0.19 0.21,-0.19 0.21,-0.19 0.22,-0.2 0.21,-0.19 0.21,-0.19 0.21,-0.19 0.21,-0.2 0.22,-0.19 0.21,-0.19 0.21,-0.19 0.21,-0.2 0.21,-0.19 0.21,-0.19 0.2,-0.19 0.21,-0.2 0.2,-0.19 0.21,-0.19 0.2,-0.19 0.2,-0.2 0.2,-0.19 0.19,-0.19 0.2,-0.19 0.19,-0.2 0.19,-0.19 0.19,-0.19 0.18,-0.19 0.18,-0.2 0.18,-0.19 0.18,-0.19 0.17,-0.19 0.17,-0.2 0.16,-0.19 0.17,-0.19 0.15,-0.19 0.16,-0.2 0.15,-0.19 0.15,-0.19 0.14,-0.19 0.14,-0.2 0.13,-0.19 0.13,-0.19 0.13,-0.19 0.12,-0.2 0.12,-0.19 0.11,-0.19 0.11,-0.19 0.1,-0.2 0.1,-0.19 0.1,-0.19 0.09,-0.19 0.08,-0.2 0.08,-0.19 0.07,-0.19 0.07,-0.19 0.07,-0.2 0.06,-0.19 0.05,-0.19 0.05,-0.19 0.04,-0.19 0.04,-0.2 0.03,-0.19 0.03,-0.19 0.02,-0.19 0.02,-0.2 0.01,-0.19 0.01,-0.19 v -0.19 -0.2 l -0.01,-0.19 -0.01,-0.19 -0.02,-0.19 -0.02,-0.2 -0.03,-0.19 -0.03,-0.19 -0.04,-0.19 -0.04,-0.2 -0.05,-0.19 -0.05,-0.19 -0.06,-0.19 -0.06,-0.2 -0.07,-0.19 -0.07,-0.19 -0.08,-0.19 -0.08,-0.2 -0.09,-0.19 -0.08,-0.19 -0.1,-0.19 -0.09,-0.2 -0.11,-0.19 -0.1,-0.19 -0.11,-0.19 -0.12,-0.2 -0.12,-0.19 -0.12,-0.19 -0.12,-0.19 -0.13,-0.2 -0.14,-0.19 -0.13,-0.19 -0.14,-0.19 -0.14,-0.2 -0.15,-0.19 -0.15,-0.19 -0.15,-0.19 -0.16,-0.2 -0.16,-0.19 -0.16,-0.19 -0.17,-0.19 -0.16,-0.2 -0.18,-0.19 -0.17,-0.19 -0.17,-0.19 -0.18,-0.2 -0.18,-0.19 -0.19,-0.19 -0.18,-0.19 -0.19,-0.2 -0.19,-0.19 -0.19,-0.19 -0.2,-0.19 -0.19,-0.2 -0.2,-0.19 -0.2,-0.19 -0.2,-0.19 -0.21,-0.2 -0.2,-0.19 -0.21,-0.19 -0.21,-0.19 -0.21,-0.2 -0.21,-0.19 -0.22,-0.19 -0.21,-0.19 -0.22,-0.2 -0.22,-0.19 -0.22,-0.19 -0.22,-0.19 -0.22,-0.2 -0.22,-0.19 -0.22,-0.19 -0.23,-0.19 -0.23,-0.2 -0.22,-0.19 -0.23,-0.19 -0.23,-0.19 -0.23,-0.2 -0.23,-0.19 -0.23,-0.19 -0.23,-0.19 -0.24,-0.2 -0.23,-0.19 -0.24,-0.19 -0.23,-0.19 -0.24,-0.2 -0.23,-0.19 -0.24,-0.19 -0.24,-0.19 -0.24,-0.2 -0.24,-0.19 -0.23,-0.19 -0.24,-0.19 -0.24,-0.2 -0.24,-0.19 -0.24,-0.19 -0.24,-0.19 -0.24,-0.2 -0.25,-0.19 -0.24,-0.19 -0.24,-0.19 -0.24,-0.2 -0.24,-0.19 -0.24,-0.19 -0.24,-0.19 -0.24,-0.2 -0.25,-0.19 -0.24,-0.19 -0.24,-0.19 -0.24,-0.2 -0.24,-0.19 -0.24,-0.19 -0.24,-0.19 -0.24,-0.2 -0.24,-0.19 -0.24,-0.19 -0.23,-0.19 -0.24,-0.2 -0.24,-0.19 -0.23,-0.19 -0.24,-0.19 -0.23,-0.2 -0.24,-0.19 -0.23,-0.19 -0.23,-0.19 -0.23,-0.2 -0.24,-0.19 -0.22,-0.19 -0.23,-0.19 -0.23,-0.2 -0.23,-0.19 -0.22,-0.19 -0.22,-0.19 -0.22,-0.2 -0.23,-0.19 -0.21,-0.19 -0.22,-0.19 -0.22,-0.2 -0.21,-0.19 -0.21,-0.19 -0.21,-0.19 -0.21,-0.2 -0.21,-0.19 -0.2,-0.19 -0.21,-0.19 -0.2,-0.2 -0.2,-0.19 -0.19,-0.19 -0.2,-0.19 -0.19,-0.2 -0.19,-0.19 -0.19,-0.19 -0.18,-0.19 -0.18,-0.2 -0.18,-0.19 -0.18,-0.19 -0.18,-0.19 -0.17,-0.19 -0.17,-0.2 -0.16,-0.19 -0.16,-0.19 -0.16,-0.19 -0.16,-0.2 -0.15,-0.19 -0.15,-0.19 -0.15,-0.19 -0.14,-0.2 -0.14,-0.19 -0.14,-0.19 -0.13,-0.19 -0.13,-0.2 -0.13,-0.19 -0.12,-0.19 -0.12,-0.19 -0.12,-0.2 -0.11,-0.19 -0.1,-0.19 -0.11,-0.19 -0.1,-0.2 -0.09,-0.19 -0.09,-0.19 -0.09,-0.19 -0.08,-0.2 -0.08,-0.19 -0.08,-0.19 -0.07,-0.19 -0.06,-0.2 -0.06,-0.19 -0.06,-0.19 -0.05,-0.19 -0.05,-0.2 -0.04,-0.19 -0.04,-0.19 -0.04,-0.19 -0.03,-0.2 -0.02,-0.19 -0.02,-0.19 -0.02,-0.19 -0.01,-0.2 v -0.19 -0.19 -0.19 l 0.01,-0.2 0.01,-0.19 0.02,-0.19 0.03,-0.19 0.03,-0.2 0.03,-0.19 0.04,-0.19 0.04,-0.19 0.05,-0.2 0.06,-0.19 0.06,-0.19 0.06,-0.19 0.07,-0.2 0.08,-0.19 0.08,-0.19 0.08,-0.19 0.09,-0.2 0.1,-0.19 0.1,-0.19 0.1,-0.19 0.11,-0.2 0.12,-0.19 0.12,-0.19 0.13,-0.19 0.13,-0.2 0.13,-0.19 0.15,-0.19 0.14,-0.19 0.15,-0.2 0.16,-0.19 0.16,-0.19 0.17,-0.19 0.17,-0.2 0.17,-0.19 0.18,-0.19 0.19,-0.19 0.19,-0.2 0.19,-0.19 0.2,-0.19 0.21,-0.19 0.2,-0.2 0.22,-0.19 0.21,-0.19 0.22,-0.19 0.23,-0.2 0.23,-0.19 0.23,-0.19 0.24,-0.19 0.24,-0.2 0.24,-0.19 0.25,-0.19 0.25,-0.19 0.26,-0.2 0.26,-0.19 0.26,-0.19 0.26,-0.19 0.27,-0.2 0.27,-0.19 0.28,-0.19 0.27,-0.19 0.28,-0.2 0.28,-0.19 0.29,-0.19 0.28,-0.19 0.29,-0.2 0.29,-0.19 0.29,-0.19 0.29,-0.19 0.3,-0.2 0.29,-0.19 0.3,-0.19 0.3,-0.19 0.3,-0.2 0.3,-0.19 0.3,-0.19 0.3,-0.19 0.3,-0.2 0.3,-0.19 0.3,-0.19 0.3,-0.19 0.3,-0.2 0.3,-0.19 0.3,-0.19 0.3,-0.19 0.3,-0.2 0.29,-0.19 0.29,-0.19 0.3,-0.19 0.29,-0.2 0.29,-0.19 0.28,-0.19 0.29,-0.19 0.28,-0.2 0.28,-0.19 0.27,-0.19 0.28,-0.19 0.27,-0.2 0.26,-0.19 0.26,-0.19 0.26,-0.19 0.26,-0.2 0.25,-0.19 0.25,-0.19 0.24,-0.19 0.24,-0.2 0.23,-0.19 0.23,-0.19 0.22,-0.19 0.22,-0.2 0.21,-0.19 0.21,-0.19 0.2,-0.19 0.2,-0.2 0.19,-0.19 0.18,-0.19 0.18,-0.19 0.17,-0.19 0.17,-0.2 0.15,-0.19 0.16,-0.19 0.14,-0.19 0.14,-0.2 0.13,-0.19 0.13,-0.19 0.11,-0.19 0.11,-0.2 0.1,-0.19 0.1,-0.19 0.09,-0.19 0.08,-0.2 0.07,-0.19 0.07,-0.19 0.05,-0.19 0.05,-0.2 0.05,-0.19 0.03,-0.19 0.03,-0.19 0.02,-0.2 0.01,-0.19 v -0.19 -0.19 l -0.02,-0.2 -0.02,-0.19 -0.03,-0.19 -0.03,-0.19 z"
           style="fill:#a4a4a4;fill-opacity:1;fill-rule:nonzero;stroke:#8b0000;stroke-width:1.07000005;stroke-linecap:round;stroke-linejoin:round;stroke-miterlimit:10;stroke-dasharray:none;stroke-opacity:1"
           id="path88"
           inkscape:connector-curvature="0" /><path
           d="m 231.99,108.28 v 0.12 l 0.01,0.12 0.02,0.11 0.03,0.12 0.03,0.11 0.05,0.12 0.05,0.11 0.07,0.12 0.06,0.11 0.08,0.12 0.08,0.11 0.1,0.12 0.1,0.11 0.11,0.12 0.11,0.12 0.12,0.11 0.14,0.12 0.13,0.11 0.15,0.12 0.15,0.11 0.16,0.12 0.17,0.11 0.17,0.12 0.18,0.11 0.19,0.12 0.19,0.11 0.21,0.12 0.2,0.12 0.22,0.11 0.21,0.12 0.23,0.11 0.23,0.12 0.24,0.11 0.24,0.12 0.25,0.11 0.25,0.12 0.26,0.11 0.27,0.12 0.27,0.12 0.27,0.11 0.28,0.12 0.28,0.11 0.28,0.12 0.29,0.11 0.3,0.12 0.3,0.11 0.3,0.12 0.3,0.11 0.31,0.12 0.31,0.11 0.32,0.12 0.32,0.12 0.32,0.11 0.32,0.12 0.32,0.11 0.33,0.12 0.33,0.11 0.33,0.12 0.33,0.11 0.33,0.12 0.34,0.11 0.34,0.12 0.33,0.11 0.34,0.12 0.34,0.12 0.34,0.11 0.34,0.12 0.34,0.11 0.34,0.12 0.34,0.11 0.34,0.12 0.33,0.11 0.34,0.12 0.34,0.11 0.34,0.12 0.33,0.11 0.34,0.12 0.33,0.12 0.33,0.11 0.34,0.12 0.32,0.11 0.33,0.12 0.33,0.11 0.32,0.12 0.32,0.11 0.32,0.12 0.32,0.11 0.32,0.12 0.31,0.11 0.31,0.12 0.3,0.12 0.31,0.11 0.3,0.12 0.3,0.11 0.3,0.12 0.29,0.11 0.29,0.12 0.28,0.11 0.29,0.12 0.28,0.11 0.27,0.12 0.27,0.12 0.27,0.11 0.27,0.12 0.26,0.11 0.26,0.12 0.25,0.11 0.25,0.12 0.25,0.11 0.24,0.12 0.24,0.11 0.23,0.12 0.23,0.11 0.23,0.12 0.22,0.12 0.22,0.11 0.21,0.12 0.21,0.11 0.2,0.12 0.2,0.11 0.2,0.12 0.19,0.11 0.19,0.12 0.18,0.11 0.18,0.12 0.17,0.11 0.17,0.12 0.17,0.12 0.16,0.11 0.16,0.12 0.15,0.11 0.15,0.12 0.14,0.11 0.14,0.12 0.13,0.11 0.14,0.12 0.12,0.11 0.12,0.12 0.12,0.11 0.11,0.12 0.1,0.12 0.11,0.11 0.1,0.12 0.09,0.11 0.09,0.12 0.09,0.11 0.08,0.12 0.07,0.11 0.07,0.12 0.07,0.11 0.06,0.12 0.06,0.12 0.06,0.11 0.04,0.12 0.05,0.11 0.04,0.12 0.04,0.11 0.03,0.12 0.03,0.11 0.02,0.12 0.02,0.11 0.01,0.12 0.01,0.11 v 0.12 l 0.01,0.12 -0.01,0.11 -0.01,0.12 -0.01,0.11 -0.02,0.12 -0.02,0.11 -0.03,0.12 -0.03,0.11 -0.03,0.12 -0.04,0.11 -0.05,0.12 -0.04,0.11 -0.06,0.12 -0.06,0.12 -0.06,0.11 -0.06,0.12 -0.07,0.11 -0.08,0.12 -0.08,0.11 -0.08,0.12 -0.09,0.11 -0.09,0.12 -0.1,0.11 -0.1,0.12 -0.11,0.11 -0.11,0.12 -0.12,0.12 -0.12,0.11 -0.12,0.12 -0.13,0.11 -0.14,0.12 -0.13,0.11 -0.15,0.12 -0.14,0.11 -0.15,0.12 -0.16,0.11 -0.16,0.12 -0.17,0.11 -0.16,0.12 -0.18,0.12 -0.18,0.11 -0.18,0.12 -0.19,0.11 -0.19,0.12 -0.19,0.11 -0.2,0.12 -0.21,0.11 -0.21,0.12 -0.21,0.11 -0.21,0.12 -0.22,0.12 -0.23,0.11 -0.23,0.12 -0.23,0.11 -0.24,0.12 -0.24,0.11 -0.25,0.12 -0.25,0.11 -0.25,0.12 -0.26,0.11 -0.26,0.12 -0.27,0.11 -0.26,0.12 -0.28,0.12 -0.27,0.11 -0.28,0.12 -0.28,0.11 -0.29,0.12 -0.29,0.11 -0.29,0.12 -0.3,0.11 -0.3,0.12 -0.3,0.11 -0.3,0.12 -0.31,0.11 -0.31,0.12 -0.32,0.12 -0.31,0.11 -0.32,0.12 -0.32,0.11 -0.32,0.12 -0.33,0.11 -0.32,0.12 -0.33,0.11 -0.33,0.12 -0.34,0.11 -0.33,0.12 -0.33,0.11 -0.34,0.12 -0.34,0.12 -0.34,0.11 -0.34,0.12 -0.34,0.11 -0.34,0.12 -0.34,0.11 -0.34,0.12 -0.35,0.11 -0.34,0.12 -0.34,0.11 -0.34,0.12 -0.35,0.12 -0.34,0.11 -0.34,0.12 -0.34,0.11 -0.34,0.12 -0.34,0.11 -0.33,0.12 -0.34,0.11 -0.33,0.12 -0.33,0.11 -0.34,0.12 -0.32,0.11 -0.33,0.12 -0.32,0.12 -0.33,0.11 -0.31,0.12 -0.32,0.11 -0.31,0.12 -0.31,0.11 -0.31,0.12 -0.3,0.11 -0.3,0.12 -0.3,0.11 -0.29,0.12 -0.29,0.11 -0.29,0.12 -0.28,0.12 -0.27,0.11 -0.27,0.12 -0.27,0.11 -0.26,0.12 -0.26,0.11 -0.25,0.12 -0.25,0.11 -0.24,0.12 -0.24,0.11 -0.23,0.12 -0.22,0.11 -0.22,0.12 -0.22,0.12 -0.2,0.11 -0.21,0.12 -0.19,0.11 -0.19,0.12 -0.18,0.11 -0.18,0.12 -0.17,0.11 -0.17,0.12 -0.16,0.11 -0.15,0.12 -0.14,0.12 -0.14,0.11 -0.13,0.12 -0.12,0.11 -0.12,0.12 -0.11,0.11 -0.11,0.12 -0.1,0.11 -0.09,0.12 -0.08,0.11 -0.08,0.12 -0.07,0.11 -0.06,0.12 -0.06,0.12 -0.05,0.11 -0.04,0.12 -0.04,0.11 -0.03,0.12 -0.03,0.11 -0.01,0.12 -0.01,0.11 -0.01,0.12 v 0.11 l 0.01,0.12 0.01,0.11 0.02,0.12 0.03,0.12 0.03,0.11 0.04,0.12 0.04,0.11 0.05,0.12 0.05,0.11 0.06,0.12 0.06,0.11 0.08,0.12 0.07,0.11 0.08,0.12 0.08,0.11 0.09,0.12 0.09,0.12 0.1,0.11 0.1,0.12 0.1,0.11 0.11,0.12 0.11,0.11 0.11,0.12 0.12,0.11 0.12,0.12 0.12,0.11 0.13,0.12 0.12,0.11 0.13,0.12 0.14,0.12 0.13,0.11 0.13,0.12 0.14,0.11 0.14,0.12 0.14,0.11 0.14,0.12 0.14,0.11 0.14,0.12 0.14,0.11 0.14,0.12 0.14,0.12 0.15,0.11 0.14,0.12 0.14,0.11 0.13,0.12 0.14,0.11 0.14,0.12 0.13,0.11 0.14,0.12 0.13,0.11 0.13,0.12 0.13,0.11 0.12,0.12 0.13,0.12 0.12,0.11 0.12,0.12 0.11,0.11 0.11,0.12 0.11,0.11 0.11,0.12 0.1,0.11 0.1,0.12 0.1,0.11 0.09,0.12 0.09,0.11 0.08,0.12 0.08,0.12 0.07,0.11 0.07,0.12 0.07,0.11 0.06,0.12 0.06,0.11 0.05,0.12 0.05,0.11 0.04,0.12 0.04,0.11 0.03,0.12 0.03,0.11 0.02,0.12 0.02,0.12 0.01,0.11 0.01,0.12 v 0.11 0.12 l -0.01,0.11 -0.01,0.12 -0.02,0.11 -0.02,0.12 -0.02,0.11 -0.03,0.12 -0.04,0.12 -0.04,0.11 -0.05,0.12 -0.05,0.11 -0.06,0.12 -0.06,0.11 -0.07,0.12 -0.06,0.11 -0.08,0.12 -0.08,0.11 -0.08,0.12 -0.09,0.11 -0.09,0.12 -0.09,0.12 -0.1,0.11 -0.1,0.12 -0.11,0.11 -0.1,0.12 -0.11,0.11 -0.12,0.12 -0.12,0.11 -0.12,0.12 -0.12,0.11 -0.13,0.12 -0.12,0.11 -0.13,0.12 -0.13,0.12 -0.14,0.11 -0.13,0.12 -0.14,0.11 -0.14,0.12 -0.14,0.11 -0.14,0.12 -0.14,0.11 -0.14,0.12 -0.14,0.11 -0.14,0.12 -0.14,0.11 -0.14,0.12 -0.14,0.12 -0.14,0.11 -0.14,0.12 -0.14,0.11 -0.14,0.12 -0.13,0.11 -0.14,0.12 -0.13,0.11 -0.13,0.12 -0.13,0.11 -0.12,0.12 -0.13,0.11 -0.12,0.12 -0.11,0.12 -0.12,0.11 -0.11,0.12 -0.11,0.11 -0.1,0.12 -0.1,0.11 -0.1,0.12 -0.09,0.11 -0.09,0.12 -0.08,0.11 -0.08,0.12 -0.08,0.12 -0.07,0.11 -0.06,0.12 -0.06,0.11 -0.06,0.12 -0.05,0.11 -0.04,0.12 -0.04,0.11 -0.03,0.12 -0.03,0.11 -0.02,0.12 -0.02,0.11 v 0.12 l -0.01,0.12 0.01,0.11 0.01,0.12 0.02,0.11 0.02,0.12 0.03,0.11 0.03,0.12 0.05,0.11 h 80 l 0.05,-0.11 0.03,-0.12 0.03,-0.11 0.02,-0.12 0.02,-0.11 0.01,-0.12 0.01,-0.11 -0.01,-0.12 -0.01,-0.12 -0.01,-0.11 -0.02,-0.12 -0.03,-0.11 -0.03,-0.12 -0.04,-0.11 -0.04,-0.12 -0.05,-0.11 -0.06,-0.12 -0.06,-0.11 -0.06,-0.12 -0.07,-0.11 -0.08,-0.12 -0.08,-0.12 -0.08,-0.11 -0.09,-0.12 -0.09,-0.11 -0.1,-0.12 -0.1,-0.11 -0.1,-0.12 -0.11,-0.11 -0.11,-0.12 -0.12,-0.11 -0.11,-0.12 -0.13,-0.12 -0.12,-0.11 -0.12,-0.12 -0.13,-0.11 -0.13,-0.12 -0.13,-0.11 -0.14,-0.12 -0.13,-0.11 -0.14,-0.12 -0.14,-0.11 -0.14,-0.12 -0.14,-0.11 -0.14,-0.12 -0.14,-0.12 -0.14,-0.11 -0.14,-0.12 -0.14,-0.11 -0.14,-0.12 -0.15,-0.11 -0.13,-0.12 -0.14,-0.11 -0.14,-0.12 -0.14,-0.11 -0.13,-0.12 -0.14,-0.11 -0.13,-0.12 -0.13,-0.12 -0.12,-0.11 -0.13,-0.12 -0.12,-0.11 -0.12,-0.12 -0.12,-0.11 -0.12,-0.12 -0.11,-0.11 -0.11,-0.12 -0.1,-0.11 -0.1,-0.12 -0.1,-0.11 -0.09,-0.12 -0.1,-0.12 -0.08,-0.11 -0.08,-0.12 -0.08,-0.11 -0.08,-0.12 -0.07,-0.11 -0.06,-0.12 -0.06,-0.11 -0.06,-0.12 -0.05,-0.11 -0.05,-0.12 -0.04,-0.11 -0.04,-0.12 -0.03,-0.12 -0.03,-0.11 -0.02,-0.12 -0.01,-0.11 -0.01,-0.12 -0.01,-0.11 v -0.12 -0.11 l 0.01,-0.12 0.01,-0.11 0.02,-0.12 0.02,-0.12 0.03,-0.11 0.03,-0.12 0.04,-0.11 0.04,-0.12 0.05,-0.11 0.05,-0.12 0.06,-0.11 0.06,-0.12 0.07,-0.11 0.07,-0.12 0.07,-0.11 0.08,-0.12 0.08,-0.12 0.09,-0.11 0.09,-0.12 0.1,-0.11 0.1,-0.12 0.1,-0.11 0.1,-0.12 0.11,-0.11 0.12,-0.12 0.11,-0.11 0.12,-0.12 0.12,-0.11 0.12,-0.12 0.13,-0.12 0.13,-0.11 0.13,-0.12 0.13,-0.11 0.13,-0.12 0.14,-0.11 0.14,-0.12 0.13,-0.11 0.14,-0.12 0.14,-0.11 0.14,-0.12 0.14,-0.11 0.15,-0.12 0.14,-0.12 0.14,-0.11 0.14,-0.12 0.14,-0.11 0.14,-0.12 0.14,-0.11 0.14,-0.12 0.13,-0.11 0.14,-0.12 0.13,-0.11 0.13,-0.12 0.13,-0.12 0.13,-0.11 0.13,-0.12 0.12,-0.11 0.12,-0.12 0.12,-0.11 0.11,-0.12 0.11,-0.11 0.11,-0.12 0.1,-0.11 0.1,-0.12 0.1,-0.11 0.09,-0.12 0.09,-0.12 0.08,-0.11 0.08,-0.12 0.07,-0.11 0.08,-0.12 0.06,-0.11 0.06,-0.12 0.05,-0.11 0.05,-0.12 0.04,-0.11 0.04,-0.12 0.03,-0.11 0.03,-0.12 0.02,-0.12 0.01,-0.11 0.01,-0.12 v -0.11 l -0.01,-0.12 -0.01,-0.11 -0.01,-0.12 -0.03,-0.11 -0.03,-0.12 -0.04,-0.11 -0.04,-0.12 -0.05,-0.11 -0.06,-0.12 -0.06,-0.12 -0.07,-0.11 -0.08,-0.12 -0.08,-0.11 -0.1,-0.12 -0.09,-0.11 -0.11,-0.12 -0.11,-0.11 -0.12,-0.12 -0.12,-0.11 -0.13,-0.12 -0.14,-0.11 -0.15,-0.12 -0.15,-0.12 -0.15,-0.11 -0.17,-0.12 -0.17,-0.11 -0.18,-0.12 -0.18,-0.11 -0.19,-0.12 -0.2,-0.11 -0.2,-0.12 -0.2,-0.11 -0.22,-0.12 -0.22,-0.12 -0.22,-0.11 -0.23,-0.12 -0.24,-0.11 -0.24,-0.12 -0.25,-0.11 -0.25,-0.12 -0.26,-0.11 -0.26,-0.12 -0.27,-0.11 -0.27,-0.12 -0.28,-0.11 -0.27,-0.12 -0.29,-0.12 -0.29,-0.11 -0.29,-0.12 -0.3,-0.11 -0.3,-0.12 -0.3,-0.11 -0.31,-0.12 -0.31,-0.11 -0.31,-0.12 -0.32,-0.11 -0.32,-0.12 -0.32,-0.11 -0.32,-0.12 -0.33,-0.12 -0.33,-0.11 -0.33,-0.12 -0.33,-0.11 -0.33,-0.12 -0.34,-0.11 -0.34,-0.12 -0.33,-0.11 -0.34,-0.12 -0.34,-0.11 -0.34,-0.12 -0.35,-0.11 -0.34,-0.12 -0.34,-0.12 -0.34,-0.11 -0.35,-0.12 -0.34,-0.11 -0.34,-0.12 -0.34,-0.11 -0.34,-0.12 -0.34,-0.11 -0.34,-0.12 -0.34,-0.11 -0.34,-0.12 -0.34,-0.12 -0.33,-0.11 -0.34,-0.12 -0.33,-0.11 -0.33,-0.12 -0.33,-0.11 -0.32,-0.12 -0.33,-0.11 -0.32,-0.12 -0.32,-0.11 -0.32,-0.12 -0.32,-0.11 -0.31,-0.12 -0.31,-0.12 -0.31,-0.11 -0.3,-0.12 -0.3,-0.11 -0.3,-0.12 -0.3,-0.11 -0.29,-0.12 -0.29,-0.11 -0.29,-0.12 -0.28,-0.11 -0.28,-0.12 -0.28,-0.11 -0.27,-0.12 -0.27,-0.12 -0.26,-0.11 -0.26,-0.12 -0.26,-0.11 -0.25,-0.12 -0.25,-0.11 -0.25,-0.12 -0.24,-0.11 -0.24,-0.12 -0.23,-0.11 -0.23,-0.12 -0.23,-0.11 -0.22,-0.12 -0.22,-0.12 -0.21,-0.11 -0.21,-0.12 -0.2,-0.11 -0.2,-0.12 -0.19,-0.11 -0.2,-0.12 -0.18,-0.11 -0.18,-0.12 -0.18,-0.11 -0.18,-0.12 -0.17,-0.12 -0.16,-0.11 -0.16,-0.12 -0.16,-0.11 -0.15,-0.12 -0.14,-0.11 -0.15,-0.12 -0.13,-0.11 -0.14,-0.12 -0.13,-0.11 -0.12,-0.12 -0.12,-0.11 -0.12,-0.12 -0.11,-0.12 -0.11,-0.11 -0.1,-0.12 -0.1,-0.11 -0.09,-0.12 -0.09,-0.11 -0.08,-0.12 -0.08,-0.11 -0.08,-0.12 -0.07,-0.11 -0.06,-0.12 -0.07,-0.11 -0.05,-0.12 -0.06,-0.12 -0.04,-0.11 -0.05,-0.12 -0.04,-0.11 -0.03,-0.12 -0.03,-0.11 -0.03,-0.12 -0.02,-0.11 -0.02,-0.12 -0.01,-0.11 -0.01,-0.12 -0.01,-0.11 0.01,-0.12 v -0.12 l 0.01,-0.11 0.01,-0.12 0.02,-0.11 0.02,-0.12 0.03,-0.11 0.03,-0.12 0.04,-0.11 0.04,-0.12 0.04,-0.11 0.05,-0.12 0.06,-0.11 0.06,-0.12 0.06,-0.12 0.07,-0.11 0.07,-0.12 0.07,-0.11 0.08,-0.12 0.09,-0.11 0.09,-0.12 0.09,-0.11 0.1,-0.12 0.1,-0.11 0.11,-0.12 0.11,-0.12 0.12,-0.11 0.12,-0.12 0.12,-0.11 0.14,-0.12 0.13,-0.11 0.14,-0.12 0.14,-0.11 0.15,-0.12 0.15,-0.11 0.16,-0.12 0.16,-0.11 0.16,-0.12 0.17,-0.12 0.18,-0.11 0.18,-0.12 0.18,-0.11 0.19,-0.12 0.19,-0.11 0.2,-0.12 0.2,-0.11 0.2,-0.12 0.21,-0.11 0.21,-0.12 0.22,-0.11 0.22,-0.12 0.23,-0.12 0.23,-0.11 0.23,-0.12 0.24,-0.11 0.24,-0.12 0.25,-0.11 0.25,-0.12 0.25,-0.11 0.26,-0.12 0.26,-0.11 0.27,-0.12 0.27,-0.11 0.27,-0.12 0.27,-0.12 0.28,-0.11 0.29,-0.12 0.28,-0.11 0.29,-0.12 0.29,-0.11 0.3,-0.12 0.3,-0.11 0.3,-0.12 0.3,-0.11 0.31,-0.12 0.31,-0.12 0.31,-0.11 0.32,-0.12 0.32,-0.11 0.32,-0.12 0.32,-0.11 0.32,-0.12 0.33,-0.11 0.33,-0.12 0.32,-0.11 0.34,-0.12 0.33,-0.11 0.33,-0.12 0.34,-0.12 0.33,-0.11 0.34,-0.12 0.34,-0.11 0.33,-0.12 0.34,-0.11 0.34,-0.12 0.34,-0.11 0.34,-0.12 0.34,-0.11 0.34,-0.12 0.34,-0.11 0.34,-0.12 0.34,-0.12 0.33,-0.11 0.34,-0.12 0.33,-0.11 0.34,-0.12 0.33,-0.11 0.33,-0.12 0.33,-0.11 0.33,-0.12 0.32,-0.11 0.32,-0.12 0.32,-0.11 0.32,-0.12 0.31,-0.12 0.32,-0.11 0.3,-0.12 0.31,-0.11 0.3,-0.12 0.3,-0.11 0.29,-0.12 0.29,-0.11 0.29,-0.12 0.28,-0.11 0.28,-0.12 0.27,-0.11 0.27,-0.12 0.27,-0.12 0.26,-0.11 0.25,-0.12 0.25,-0.11 0.24,-0.12 0.24,-0.11 0.23,-0.12 0.23,-0.11 0.21,-0.12 0.22,-0.11 0.2,-0.12 0.21,-0.12 0.19,-0.11 0.19,-0.12 0.18,-0.11 0.17,-0.12 0.17,-0.11 0.16,-0.12 0.15,-0.11 0.15,-0.12 0.13,-0.11 0.13,-0.12 0.13,-0.11 0.11,-0.12 0.11,-0.12 0.1,-0.11 0.1,-0.12 0.08,-0.11 0.08,-0.12 0.06,-0.11 0.07,-0.12 0.05,-0.11 0.05,-0.12 0.03,-0.11 0.03,-0.12 0.02,-0.11 0.01,-0.12 v -0.12 z"
           style="fill:#a4a4a4;fill-opacity:1;fill-rule:nonzero;stroke:#8b0000;stroke-width:1.07000005;stroke-linecap:round;stroke-linejoin:round;stroke-miterlimit:10;stroke-dasharray:none;stroke-opacity:1"
           id="path90"
           inkscape:connector-curvature="0" /><path
           d="m 340.75,59.36 -0.11,0.29 -0.11,0.28 -0.11,0.29 -0.1,0.28 -0.11,0.29 -0.1,0.28 -0.1,0.29 -0.1,0.28 -0.1,0.29 -0.1,0.28 -0.09,0.29 -0.09,0.28 -0.1,0.29 -0.09,0.28 -0.09,0.29 -0.09,0.28 -0.09,0.29 -0.09,0.28 -0.08,0.29 -0.09,0.28 -0.09,0.29 -0.09,0.28 -0.08,0.29 -0.09,0.28 -0.09,0.29 -0.09,0.28 -0.08,0.29 -0.09,0.28 -0.09,0.29 -0.09,0.28 -0.09,0.29 -0.09,0.28 -0.1,0.29 -0.09,0.28 -0.1,0.29 -0.09,0.28 -0.1,0.29 -0.1,0.28 -0.1,0.29 -0.11,0.29 -0.1,0.28 -0.11,0.29 -0.11,0.28 -0.11,0.29 -0.12,0.28 -0.12,0.29 -0.12,0.28 -0.12,0.29 -0.12,0.28 -0.13,0.29 -0.13,0.28 -0.13,0.29 -0.14,0.28 -0.14,0.29 -0.14,0.28 -0.14,0.29 -0.15,0.28 -0.15,0.29 -0.15,0.28 -0.16,0.29 -0.16,0.28 -0.16,0.29 -0.17,0.28 -0.17,0.29 -0.17,0.28 -0.17,0.29 -0.18,0.28 -0.18,0.29 -0.18,0.28 -0.18,0.29 -0.19,0.28 -0.19,0.29 -0.2,0.28 -0.19,0.29 -0.2,0.28 -0.2,0.29 -0.2,0.28 -0.21,0.29 -0.2,0.28 -0.21,0.29 -0.21,0.28 -0.21,0.29 -0.22,0.28 -0.21,0.29 -0.22,0.28 -0.21,0.29 -0.22,0.29 -0.22,0.28 -0.22,0.29 -0.22,0.28 -0.23,0.29 -0.22,0.28 -0.22,0.29 -0.22,0.28 -0.22,0.29 -0.23,0.28 -0.22,0.29 -0.22,0.28 -0.22,0.29 -0.22,0.28 -0.22,0.29 -0.21,0.28 -0.22,0.29 -0.21,0.28 -0.21,0.29 -0.21,0.28 -0.21,0.29 -0.21,0.28 -0.2,0.29 -0.2,0.28 -0.2,0.29 -0.2,0.28 -0.19,0.29 -0.19,0.28 -0.19,0.29 -0.18,0.28 -0.18,0.29 -0.17,0.28 -0.17,0.29 -0.17,0.28 -0.16,0.29 -0.16,0.28 -0.15,0.29 -0.15,0.28 -0.14,0.29 -0.15,0.28 -0.13,0.29 -0.13,0.28 -0.12,0.29 -0.12,0.28 -0.11,0.29 -0.1,0.29 -0.1,0.28 -0.1,0.29 -0.09,0.28 -0.08,0.29 -0.07,0.28 -0.07,0.29 -0.07,0.28 -0.05,0.29 -0.05,0.28 -0.04,0.29 -0.04,0.28 -0.03,0.29 -0.02,0.28 -0.02,0.29 v 0.28 0.29 0.28 l 0.01,0.29 0.03,0.28 0.02,0.29 0.04,0.28 0.04,0.29 0.05,0.28 0.05,0.29 0.07,0.28 0.07,0.29 0.08,0.28 0.08,0.29 0.1,0.28 0.1,0.29 0.1,0.28 0.12,0.29 0.12,0.28 0.13,0.29 0.13,0.28 0.15,0.29 0.14,0.28 0.16,0.29 0.16,0.28 0.17,0.29 0.18,0.28 0.18,0.29 0.19,0.28 0.2,0.29 0.2,0.29 0.21,0.28 0.21,0.29 0.22,0.28 0.23,0.29 0.23,0.28 0.23,0.29 0.25,0.28 0.24,0.29 0.26,0.28 0.26,0.29 0.26,0.28 0.27,0.29 0.27,0.28 0.27,0.29 0.28,0.28 0.29,0.29 0.29,0.28 0.29,0.29 0.3,0.28 0.29,0.29 0.31,0.28 0.3,0.29 0.31,0.28 0.31,0.29 0.32,0.28 0.31,0.29 0.32,0.28 0.32,0.29 0.32,0.28 0.32,0.29 0.33,0.28 0.32,0.29 0.33,0.28 0.32,0.29 0.33,0.28 0.33,0.29 0.32,0.28 0.33,0.29 0.33,0.28 0.32,0.29 0.33,0.28 0.32,0.29 0.32,0.28 0.32,0.29 0.32,0.29 0.32,0.28 0.31,0.29 0.32,0.28 0.31,0.29 0.3,0.28 0.31,0.29 0.3,0.28 0.3,0.29 0.29,0.28 0.29,0.29 0.29,0.28 0.28,0.29 0.28,0.28 0.27,0.29 0.27,0.28 0.26,0.29 0.26,0.28 0.25,0.29 0.25,0.28 0.24,0.29 0.24,0.28 0.23,0.29 0.23,0.28 0.21,0.29 0.22,0.28 0.2,0.29 0.2,0.28 0.19,0.29 0.19,0.28 0.17,0.29 0.18,0.28 0.16,0.29 0.15,0.28 0.15,0.29 0.14,0.28 0.14,0.29 0.12,0.28 0.12,0.29 0.11,0.28 0.11,0.29 0.09,0.28 0.09,0.29 0.07,0.28 0.07,0.29 0.06,0.28 0.06,0.29 0.04,0.29 0.04,0.28 0.03,0.29 0.02,0.28 0.01,0.29 v 0.28 0.29 l -0.02,0.28 -0.01,0.29 -0.03,0.28 -0.04,0.29 -0.05,0.28 -0.05,0.29 -0.06,0.28 -0.07,0.29 -0.08,0.28 -0.08,0.29 -0.09,0.28 -0.1,0.29 -0.11,0.28 -0.11,0.29 -0.12,0.28 -0.14,0.29 -0.13,0.28 -0.14,0.29 -0.15,0.28 -0.16,0.29 -0.16,0.28 -0.17,0.29 -0.17,0.28 -0.18,0.29 -0.19,0.28 -0.19,0.29 -0.2,0.28 -0.2,0.29 -0.21,0.28 -0.21,0.29 -0.22,0.28 -0.22,0.29 -0.22,0.28 -0.23,0.29 -0.24,0.28 -0.23,0.29 -0.24,0.28 -0.25,0.29 -0.24,0.29 -0.25,0.28 -0.25,0.29 -0.26,0.28 -0.25,0.29 -0.26,0.28 -0.26,0.29 -0.26,0.28 -0.26,0.29 -0.26,0.28 -0.26,0.29 -0.26,0.28 -0.26,0.29 -0.26,0.28 -0.27,0.29 -0.26,0.28 -0.26,0.29 -0.25,0.28 -0.26,0.29 -0.26,0.28 -0.25,0.29 -0.25,0.28 -0.25,0.29 -0.24,0.28 -0.25,0.29 -0.24,0.28 -0.23,0.29 -0.23,0.28 -0.23,0.29 -0.23,0.28 -0.22,0.29 -0.21,0.28 -0.22,0.29 -0.2,0.28 -0.21,0.29 -0.19,0.28 -0.19,0.29 -0.19,0.28 -0.18,0.29 -0.18,0.28 -0.16,0.29 -0.17,0.28 -0.15,0.29 -0.15,0.28 -0.15,0.29 -0.13,0.29 -0.13,0.28 -0.13,0.29 -0.11,0.28 -0.11,0.29 -0.1,0.28 -0.1,0.29 -0.09,0.28 -0.08,0.29 -0.07,0.28 -0.07,0.29 -0.06,0.28 -0.05,0.29 -0.05,0.28 -0.03,0.29 -0.03,0.28 -0.02,0.29 -0.02,0.28 -0.01,0.29 v 0.28 l 0.01,0.29 0.01,0.28 0.02,0.29 0.03,0.28 0.03,0.29 0.04,0.28 0.05,0.29 0.05,0.28 0.06,0.29 0.07,0.28 0.07,0.29 0.08,0.28 0.08,0.29 0.09,0.28 0.1,0.29 0.1,0.28 0.11,0.29 0.11,0.28 0.12,0.29 0.12,0.28 0.13,0.29 0.12,0.28 0.14,0.29 0.14,0.28 0.14,0.29 0.15,0.29 0.15,0.28 0.15,0.29 0.15,0.28 0.16,0.29 0.16,0.28 0.17,0.29 0.16,0.28 0.17,0.29 0.17,0.28 0.17,0.29 0.17,0.28 0.18,0.29 0.17,0.28 0.18,0.29 0.17,0.28 0.18,0.29 0.17,0.28 0.18,0.29 0.18,0.28 0.17,0.29 0.18,0.28 0.17,0.29 0.17,0.28 0.17,0.29 0.18,0.28 0.16,0.29 0.17,0.28 0.17,0.29 0.16,0.28 0.16,0.29 0.16,0.28 0.16,0.29 0.16,0.28 0.15,0.29 0.15,0.28 0.15,0.29 0.14,0.28 0.14,0.29 0.14,0.28 0.14,0.29 0.13,0.28 0.13,0.29 0.13,0.28 0.12,0.29 0.12,0.28 0.12,0.29 0.11,0.29 0.11,0.28 0.11,0.29 0.1,0.28 0.1,0.29 0.1,0.28 0.1,0.29 0.09,0.28 0.09,0.29 0.08,0.28 0.08,0.29 0.08,0.28 0.08,0.29 0.07,0.28 0.08,0.29 0.06,0.28 0.07,0.29 0.06,0.28 0.06,0.29 0.06,0.28 0.06,0.29 0.05,0.28 0.06,0.29 0.05,0.28 0.05,0.29 0.05,0.28 0.04,0.29 0.05,0.28 0.04,0.29 0.04,0.28 0.05,0.29 0.04,0.28 0.04,0.29 0.04,0.28 0.04,0.29 0.04,0.28 0.04,0.29 0.04,0.28 0.04,0.29 0.04,0.28 0.05,0.29 0.04,0.28 0.04,0.29 0.05,0.28 0.04,0.29 0.05,0.29 0.04,0.28 0.05,0.29 0.05,0.28 0.06,0.29 0.05,0.28 0.06,0.29 0.05,0.28 0.06,0.29 0.07,0.28 0.06,0.29 0.07,0.28 0.07,0.29 0.07,0.28 0.07,0.29 0.08,0.28 h 36.29 l 0.07,-0.28 0.08,-0.29 0.07,-0.28 0.07,-0.29 0.07,-0.28 0.06,-0.29 0.06,-0.28 0.06,-0.29 0.06,-0.28 0.06,-0.29 0.05,-0.28 0.05,-0.29 0.06,-0.28 0.04,-0.29 0.05,-0.28 0.05,-0.29 0.04,-0.29 0.05,-0.28 0.04,-0.29 0.04,-0.28 0.04,-0.29 0.05,-0.28 0.04,-0.29 0.04,-0.28 0.04,-0.29 0.04,-0.28 0.04,-0.29 0.04,-0.28 0.04,-0.29 0.04,-0.28 0.04,-0.29 0.05,-0.28 0.04,-0.29 0.05,-0.28 0.04,-0.29 0.05,-0.28 0.05,-0.29 0.05,-0.28 0.05,-0.29 0.06,-0.28 0.06,-0.29 0.06,-0.28 0.06,-0.29 0.06,-0.28 0.07,-0.29 0.06,-0.28 0.08,-0.29 0.07,-0.28 0.08,-0.29 0.07,-0.28 0.09,-0.29 0.08,-0.28 0.09,-0.29 0.09,-0.28 0.1,-0.29 0.09,-0.28 0.1,-0.29 0.11,-0.28 0.11,-0.29 0.11,-0.28 0.11,-0.29 0.12,-0.29 0.12,-0.28 0.12,-0.29 0.13,-0.28 0.13,-0.29 0.13,-0.28 0.14,-0.29 0.14,-0.28 0.14,-0.29 0.14,-0.28 0.15,-0.29 0.15,-0.28 0.15,-0.29 0.16,-0.28 0.15,-0.29 0.17,-0.28 0.16,-0.29 0.16,-0.28 0.17,-0.29 0.16,-0.28 0.17,-0.29 0.17,-0.28 0.18,-0.29 0.17,-0.28 0.17,-0.29 0.18,-0.28 0.17,-0.29 0.18,-0.28 0.17,-0.29 0.18,-0.28 0.18,-0.29 0.17,-0.28 0.18,-0.29 0.17,-0.28 0.18,-0.29 0.17,-0.28 0.17,-0.29 0.17,-0.28 0.17,-0.29 0.16,-0.28 0.16,-0.29 0.17,-0.28 0.15,-0.29 0.16,-0.28 0.15,-0.29 0.15,-0.28 0.15,-0.29 0.14,-0.29 0.14,-0.28 0.13,-0.29 0.13,-0.28 0.13,-0.29 0.12,-0.28 0.12,-0.29 0.11,-0.28 0.11,-0.29 0.1,-0.28 0.09,-0.29 0.09,-0.28 0.09,-0.29 0.08,-0.28 0.07,-0.29 0.07,-0.28 0.06,-0.29 0.05,-0.28 0.05,-0.29 0.04,-0.28 0.03,-0.29 0.03,-0.28 0.02,-0.29 0.01,-0.28 0.01,-0.29 v -0.28 l -0.01,-0.29 -0.02,-0.28 -0.02,-0.29 -0.03,-0.28 -0.03,-0.29 -0.05,-0.28 -0.05,-0.29 -0.06,-0.28 -0.07,-0.29 -0.07,-0.28 -0.08,-0.29 -0.09,-0.28 -0.1,-0.29 -0.1,-0.28 -0.11,-0.29 -0.11,-0.28 -0.13,-0.29 -0.13,-0.28 -0.14,-0.29 -0.14,-0.29 -0.15,-0.28 -0.15,-0.29 -0.17,-0.28 -0.17,-0.29 -0.17,-0.28 -0.18,-0.29 -0.19,-0.28 -0.19,-0.29 -0.19,-0.28 -0.21,-0.29 -0.2,-0.28 -0.22,-0.29 -0.21,-0.28 -0.22,-0.29 -0.23,-0.28 -0.23,-0.29 -0.23,-0.28 -0.24,-0.29 -0.24,-0.28 -0.24,-0.29 -0.24,-0.28 -0.25,-0.29 -0.25,-0.28 -0.26,-0.29 -0.25,-0.28 -0.26,-0.29 -0.26,-0.28 -0.25,-0.29 -0.27,-0.28 -0.26,-0.29 -0.26,-0.28 -0.26,-0.29 -0.26,-0.28 -0.26,-0.29 -0.27,-0.28 -0.26,-0.29 -0.26,-0.28 -0.25,-0.29 -0.26,-0.28 -0.26,-0.29 -0.25,-0.28 -0.25,-0.29 -0.25,-0.28 -0.25,-0.29 -0.24,-0.29 -0.24,-0.28 -0.24,-0.29 -0.23,-0.28 -0.23,-0.29 -0.22,-0.28 -0.22,-0.29 -0.22,-0.28 -0.21,-0.29 -0.21,-0.28 -0.2,-0.29 -0.2,-0.28 -0.19,-0.29 -0.19,-0.28 -0.18,-0.29 -0.17,-0.28 -0.17,-0.29 -0.16,-0.28 -0.16,-0.29 -0.15,-0.28 -0.14,-0.29 -0.14,-0.28 -0.13,-0.29 -0.12,-0.28 -0.11,-0.29 -0.11,-0.28 -0.1,-0.29 -0.09,-0.28 -0.09,-0.29 -0.07,-0.28 -0.07,-0.29 -0.06,-0.28 -0.05,-0.29 -0.05,-0.28 -0.04,-0.29 -0.03,-0.28 -0.02,-0.29 -0.01,-0.28 v -0.29 -0.28 l 0.01,-0.29 0.02,-0.28 0.03,-0.29 0.04,-0.28 0.04,-0.29 0.06,-0.29 0.06,-0.28 0.07,-0.29 0.07,-0.28 0.09,-0.29 0.09,-0.28 0.11,-0.29 0.11,-0.28 0.12,-0.29 0.12,-0.28 0.14,-0.29 0.14,-0.28 0.14,-0.29 0.16,-0.28 0.16,-0.29 0.18,-0.28 0.17,-0.29 0.19,-0.28 0.19,-0.29 0.2,-0.28 0.2,-0.29 0.22,-0.28 0.21,-0.29 0.23,-0.28 0.23,-0.29 0.23,-0.28 0.25,-0.29 0.24,-0.28 0.26,-0.29 0.26,-0.28 0.26,-0.29 0.27,-0.28 0.27,-0.29 0.28,-0.28 0.28,-0.29 0.29,-0.28 0.29,-0.29 0.29,-0.28 0.3,-0.29 0.3,-0.28 0.3,-0.29 0.31,-0.28 0.31,-0.29 0.31,-0.28 0.32,-0.29 0.32,-0.28 0.31,-0.29 0.33,-0.29 0.32,-0.28 0.32,-0.29 0.33,-0.28 0.32,-0.29 0.33,-0.28 0.32,-0.29 0.33,-0.28 0.33,-0.29 0.33,-0.28 0.32,-0.29 0.33,-0.28 0.32,-0.29 0.33,-0.28 0.32,-0.29 0.32,-0.28 0.32,-0.29 0.32,-0.28 0.31,-0.29 0.32,-0.28 0.31,-0.29 0.31,-0.28 0.3,-0.29 0.3,-0.28 0.3,-0.29 0.3,-0.28 0.29,-0.29 0.29,-0.28 0.28,-0.29 0.29,-0.28 0.27,-0.29 0.27,-0.28 0.27,-0.29 0.26,-0.28 0.26,-0.29 0.25,-0.28 0.25,-0.29 0.24,-0.28 0.24,-0.29 0.23,-0.28 0.23,-0.29 0.22,-0.28 0.21,-0.29 0.21,-0.28 0.2,-0.29 0.2,-0.29 0.19,-0.28 0.18,-0.29 0.18,-0.28 0.17,-0.29 0.16,-0.28 0.16,-0.29 0.14,-0.28 0.15,-0.29 0.13,-0.28 0.13,-0.29 0.12,-0.28 0.12,-0.29 0.1,-0.28 0.1,-0.29 0.1,-0.28 0.08,-0.29 0.08,-0.28 0.07,-0.29 0.07,-0.28 0.05,-0.29 0.05,-0.28 0.04,-0.29 0.04,-0.28 0.02,-0.29 0.03,-0.28 0.01,-0.29 v -0.28 -0.29 l -0.01,-0.28 -0.01,-0.29 -0.02,-0.28 -0.03,-0.29 -0.04,-0.28 -0.04,-0.29 -0.05,-0.28 -0.06,-0.29 -0.06,-0.28 -0.07,-0.29 -0.07,-0.28 -0.09,-0.29 -0.08,-0.28 -0.1,-0.29 -0.1,-0.28 -0.1,-0.29 -0.11,-0.29 -0.12,-0.28 -0.12,-0.29 -0.13,-0.28 -0.14,-0.29 -0.14,-0.28 -0.14,-0.29 -0.15,-0.28 -0.15,-0.29 -0.16,-0.28 -0.16,-0.29 -0.17,-0.28 -0.17,-0.29 -0.17,-0.28 -0.18,-0.29 -0.18,-0.28 -0.19,-0.29 -0.19,-0.28 -0.19,-0.29 -0.2,-0.28 -0.2,-0.29 -0.2,-0.28 -0.2,-0.29 -0.21,-0.28 -0.21,-0.29 -0.21,-0.28 -0.21,-0.29 -0.21,-0.28 -0.22,-0.29 -0.22,-0.28 -0.21,-0.29 -0.22,-0.28 -0.22,-0.29 -0.22,-0.28 -0.23,-0.29 -0.22,-0.28 -0.22,-0.29 -0.22,-0.28 -0.22,-0.29 -0.23,-0.28 -0.22,-0.29 -0.22,-0.28 -0.22,-0.29 -0.22,-0.28 -0.22,-0.29 -0.21,-0.29 -0.22,-0.28 -0.22,-0.29 -0.21,-0.28 -0.21,-0.29 -0.21,-0.28 -0.21,-0.29 -0.21,-0.28 -0.2,-0.29 -0.2,-0.28 -0.2,-0.29 -0.2,-0.28 -0.19,-0.29 -0.2,-0.28 -0.19,-0.29 -0.19,-0.28 -0.18,-0.29 -0.18,-0.28 -0.18,-0.29 -0.18,-0.28 -0.17,-0.29 -0.17,-0.28 -0.17,-0.29 -0.17,-0.28 -0.16,-0.29 -0.16,-0.28 -0.16,-0.29 -0.15,-0.28 -0.15,-0.29 -0.15,-0.28 -0.14,-0.29 -0.14,-0.28 -0.14,-0.29 -0.14,-0.28 -0.13,-0.29 -0.13,-0.28 -0.13,-0.29 -0.12,-0.28 -0.12,-0.29 -0.12,-0.28 -0.12,-0.29 -0.12,-0.28 -0.11,-0.29 -0.11,-0.28 -0.11,-0.29 -0.1,-0.28 -0.11,-0.29 -0.1,-0.29 -0.1,-0.28 -0.1,-0.29 -0.09,-0.28 -0.1,-0.29 -0.09,-0.28 -0.1,-0.29 -0.09,-0.28 -0.09,-0.29 -0.09,-0.28 -0.09,-0.29 -0.09,-0.28 -0.09,-0.29 -0.08,-0.28 -0.09,-0.29 -0.09,-0.28 -0.09,-0.29 -0.08,-0.28 -0.09,-0.29 -0.09,-0.28 -0.08,-0.29 -0.09,-0.28 -0.09,-0.29 -0.09,-0.28 -0.09,-0.29 -0.09,-0.28 -0.1,-0.29 -0.09,-0.28 -0.1,-0.29 -0.09,-0.28 -0.1,-0.29 -0.1,-0.28 -0.1,-0.29 -0.1,-0.28 -0.11,-0.29 -0.1,-0.28 -0.11,-0.29 -0.11,-0.28 -0.12,-0.29 z"
           style="fill:#a4a4a4;fill-opacity:1;fill-rule:nonzero;stroke:#8b0000;stroke-width:1.07000005;stroke-linecap:round;stroke-linejoin:round;stroke-miterlimit:10;stroke-dasharray:none;stroke-opacity:1"
           id="path92"
           inkscape:connector-curvature="0" /><path
           d="m 92.26,327.16 v 56.22"
           style="fill:none;stroke:#333333;stroke-width:1.07000005;stroke-linecap:butt;stroke-linejoin:round;stroke-miterlimit:10;stroke-dasharray:none;stroke-opacity:1"
           id="path94"
           inkscape:connector-curvature="0" /><path
           d="M 92.26,244.96 V 175.27"
           style="fill:none;stroke:#333333;stroke-width:1.07000005;stroke-linecap:butt;stroke-linejoin:round;stroke-miterlimit:10;stroke-dasharray:none;stroke-opacity:1"
           id="path96"
           inkscape:connector-curvature="0" /><path
           d="m 78.87,327.16 v -82.2 h 26.78 v 82.2 z"
           style="fill:#ffffff;fill-opacity:1;fill-rule:nonzero;stroke:#333333;stroke-width:1.07000005;stroke-linecap:round;stroke-linejoin:round;stroke-miterlimit:10;stroke-dasharray:none;stroke-opacity:1"
           id="path98"
           inkscape:connector-curvature="0" /><path
           d="m 78.87,287.5 h 26.78"
           style="fill:none;stroke:#333333;stroke-width:2.13000011;stroke-linecap:butt;stroke-linejoin:round;stroke-miterlimit:10;stroke-dasharray:none;stroke-opacity:1"
           id="path100"
           inkscape:connector-curvature="0" /><path
           d="m 181.52,181.87 v 28.41"
           style="fill:none;stroke:#333333;stroke-width:1.07000005;stroke-linecap:butt;stroke-linejoin:round;stroke-miterlimit:10;stroke-dasharray:none;stroke-opacity:1"
           id="path102"
           inkscape:connector-curvature="0" /><path
           d="M 181.52,125.86 V 111.92"
           style="fill:none;stroke:#333333;stroke-width:1.07000005;stroke-linecap:butt;stroke-linejoin:round;stroke-miterlimit:10;stroke-dasharray:none;stroke-opacity:1"
           id="path104"
           inkscape:connector-curvature="0" /><path
           d="m 168.13,181.87 v -56.01 h 26.78 v 56.01 z"
           style="fill:#ffffff;fill-opacity:1;fill-rule:nonzero;stroke:#333333;stroke-width:1.07000005;stroke-linecap:round;stroke-linejoin:round;stroke-miterlimit:10;stroke-dasharray:none;stroke-opacity:1"
           id="path106"
           inkscape:connector-curvature="0" /><path
           d="m 168.13,171.2 h 26.78"
           style="fill:none;stroke:#333333;stroke-width:2.13000011;stroke-linecap:butt;stroke-linejoin:round;stroke-miterlimit:10;stroke-dasharray:none;stroke-opacity:1"
           id="path108"
           inkscape:connector-curvature="0" /><path
           d="m 270.79,156.76 v 10.49"
           style="fill:none;stroke:#333333;stroke-width:1.07000005;stroke-linecap:butt;stroke-linejoin:round;stroke-miterlimit:10;stroke-dasharray:none;stroke-opacity:1"
           id="path110"
           inkscape:connector-curvature="0" /><path
           d="m 270.79,127.28 v -19"
           style="fill:none;stroke:#333333;stroke-width:1.07000005;stroke-linecap:butt;stroke-linejoin:round;stroke-miterlimit:10;stroke-dasharray:none;stroke-opacity:1"
           id="path112"
           inkscape:connector-curvature="0" /><path
           d="m 257.4,156.76 v -29.48 h 26.78 v 29.48 z"
           style="fill:#ffffff;fill-opacity:1;fill-rule:nonzero;stroke:#333333;stroke-width:1.07000005;stroke-linecap:round;stroke-linejoin:round;stroke-miterlimit:10;stroke-dasharray:none;stroke-opacity:1"
           id="path114"
           inkscape:connector-curvature="0" /><path
           d="m 257.4,146.27 h 26.78"
           style="fill:none;stroke:#333333;stroke-width:2.13000011;stroke-linecap:butt;stroke-linejoin:round;stroke-miterlimit:10;stroke-dasharray:none;stroke-opacity:1"
           id="path116"
           inkscape:connector-curvature="0" /><path
           d="m 360.05,165.92 v 39.13"
           style="fill:none;stroke:#333333;stroke-width:1.07000005;stroke-linecap:butt;stroke-linejoin:round;stroke-miterlimit:10;stroke-dasharray:none;stroke-opacity:1"
           id="path118"
           inkscape:connector-curvature="0" /><path
           d="M 360.05,95.81 V 59.36"
           style="fill:none;stroke:#333333;stroke-width:1.07000005;stroke-linecap:butt;stroke-linejoin:round;stroke-miterlimit:10;stroke-dasharray:none;stroke-opacity:1"
           id="path120"
           inkscape:connector-curvature="0" /><path
           d="M 346.66,165.92 V 95.81 h 26.78 v 70.11 z"
           style="fill:#ffffff;fill-opacity:1;fill-rule:nonzero;stroke:#333333;stroke-width:1.07000005;stroke-linecap:round;stroke-linejoin:round;stroke-miterlimit:10;stroke-dasharray:none;stroke-opacity:1"
           id="path122"
           inkscape:connector-curvature="0" /><path
           d="m 346.66,114.41 h 26.78"
           style="fill:none;stroke:#333333;stroke-width:2.13000011;stroke-linecap:butt;stroke-linejoin:round;stroke-miterlimit:10;stroke-dasharray:none;stroke-opacity:1"
           id="path124"
           inkscape:connector-curvature="0" /><text
           transform="matrix(1,0,0,-1,80.94,171.94)"
           style="font-variant:normal;font-weight:normal;font-size:14.96000004px;font-family:ZapfDingbats;-inkscape-font-specification:ZapfDingbats;writing-mode:lr-tb;fill:#f8766d;fill-opacity:1;fill-rule:nonzero;stroke:#f8766d;stroke-width:0.75;stroke-linecap:round;stroke-linejoin:round;stroke-miterlimit:10;stroke-dasharray:none;stroke-opacity:1"
           id="text128"><tspan
             x="0"
             y="0"
             id="tspan126"></tspan></text>
<text
           transform="matrix(1,0,0,-1,91.74,171.94)"
           style="font-variant:normal;font-weight:normal;font-size:14.96000004px;font-family:ZapfDingbats;-inkscape-font-specification:ZapfDingbats;writing-mode:lr-tb;fill:#f8766d;fill-opacity:1;fill-rule:nonzero;stroke:#f8766d;stroke-width:0.75;stroke-linecap:round;stroke-linejoin:round;stroke-miterlimit:10;stroke-dasharray:none;stroke-opacity:1"
           id="text132"><tspan
             x="0"
             y="0"
             id="tspan130"></tspan></text>
<text
           transform="matrix(1,0,0,-1,80.94,220.06)"
           style="font-variant:normal;font-weight:normal;font-size:14.96000004px;font-family:ZapfDingbats;-inkscape-font-specification:ZapfDingbats;writing-mode:lr-tb;fill:#f8766d;fill-opacity:1;fill-rule:nonzero;stroke:#f8766d;stroke-width:0.75;stroke-linecap:round;stroke-linejoin:round;stroke-miterlimit:10;stroke-dasharray:none;stroke-opacity:1"
           id="text136"><tspan
             x="0"
             y="0"
             id="tspan134"></tspan></text>
<text
           transform="matrix(1,0,0,-1,91.74,220.06)"
           style="font-variant:normal;font-weight:normal;font-size:14.96000004px;font-family:ZapfDingbats;-inkscape-font-specification:ZapfDingbats;writing-mode:lr-tb;fill:#f8766d;fill-opacity:1;fill-rule:nonzero;stroke:#f8766d;stroke-width:0.75;stroke-linecap:round;stroke-linejoin:round;stroke-miterlimit:10;stroke-dasharray:none;stroke-opacity:1"
           id="text140"><tspan
             x="0"
             y="0"
             id="tspan138"></tspan></text>
<text
           transform="matrix(1,0,0,-1,80.94,233.44)"
           style="font-variant:normal;font-weight:normal;font-size:14.96000004px;font-family:ZapfDingbats;-inkscape-font-specification:ZapfDingbats;writing-mode:lr-tb;fill:#f8766d;fill-opacity:1;fill-rule:nonzero;stroke:#f8766d;stroke-width:0.75;stroke-linecap:round;stroke-linejoin:round;stroke-miterlimit:10;stroke-dasharray:none;stroke-opacity:1"
           id="text144"><tspan
             x="0"
             y="0"
             id="tspan142"></tspan></text>
<text
           transform="matrix(1,0,0,-1,91.74,233.44)"
           style="font-variant:normal;font-weight:normal;font-size:14.96000004px;font-family:ZapfDingbats;-inkscape-font-specification:ZapfDingbats;writing-mode:lr-tb;fill:#f8766d;fill-opacity:1;fill-rule:nonzero;stroke:#f8766d;stroke-width:0.75;stroke-linecap:round;stroke-linejoin:round;stroke-miterlimit:10;stroke-dasharray:none;stroke-opacity:1"
           id="text148"><tspan
             x="0"
             y="0"
             id="tspan146"></tspan></text>
<text
           transform="matrix(1,0,0,-1,80.94,247.57)"
           style="font-variant:normal;font-weight:normal;font-size:14.96000004px;font-family:ZapfDingbats;-inkscape-font-specification:ZapfDingbats;writing-mode:lr-tb;fill:#f8766d;fill-opacity:1;fill-rule:nonzero;stroke:#f8766d;stroke-width:0.75;stroke-linecap:round;stroke-linejoin:round;stroke-miterlimit:10;stroke-dasharray:none;stroke-opacity:1"
           id="text152"><tspan
             x="0"
             y="0"
             id="tspan150"></tspan></text>
<text
           transform="matrix(1,0,0,-1,91.74,247.57)"
           style="font-variant:normal;font-weight:normal;font-size:14.96000004px;font-family:ZapfDingbats;-inkscape-font-specification:ZapfDingbats;writing-mode:lr-tb;fill:#f8766d;fill-opacity:1;fill-rule:nonzero;stroke:#f8766d;stroke-width:0.75;stroke-linecap:round;stroke-linejoin:round;stroke-miterlimit:10;stroke-dasharray:none;stroke-opacity:1"
           id="text156"><tspan
             x="0"
             y="0"
             id="tspan154"></tspan></text>
<text
           transform="matrix(1,0,0,-1,75.53,263.28)"
           style="font-variant:normal;font-weight:normal;font-size:14.96000004px;font-family:ZapfDingbats;-inkscape-font-specification:ZapfDingbats;writing-mode:lr-tb;fill:#f8766d;fill-opacity:1;fill-rule:nonzero;stroke:#f8766d;stroke-width:0.75;stroke-linecap:round;stroke-linejoin:round;stroke-miterlimit:10;stroke-dasharray:none;stroke-opacity:1"
           id="text160"><tspan
             x="0"
             y="0"
             id="tspan158"></tspan></text>
<text
           transform="matrix(1,0,0,-1,86.34,263.28)"
           style="font-variant:normal;font-weight:normal;font-size:14.96000004px;font-family:ZapfDingbats;-inkscape-font-specification:ZapfDingbats;writing-mode:lr-tb;fill:#f8766d;fill-opacity:1;fill-rule:nonzero;stroke:#f8766d;stroke-width:0.75;stroke-linecap:round;stroke-linejoin:round;stroke-miterlimit:10;stroke-dasharray:none;stroke-opacity:1"
           id="text164"><tspan
             x="0"
             y="0"
             id="tspan162"></tspan></text>
<text
           transform="matrix(1,0,0,-1,97.14,263.28)"
           style="font-variant:normal;font-weight:normal;font-size:14.96000004px;font-family:ZapfDingbats;-inkscape-font-specification:ZapfDingbats;writing-mode:lr-tb;fill:#f8766d;fill-opacity:1;fill-rule:nonzero;stroke:#f8766d;stroke-width:0.75;stroke-linecap:round;stroke-linejoin:round;stroke-miterlimit:10;stroke-dasharray:none;stroke-opacity:1"
           id="text168"><tspan
             x="0"
             y="0"
             id="tspan166"></tspan></text>
<text
           transform="matrix(1,0,0,-1,80.94,282.65)"
           style="font-variant:normal;font-weight:normal;font-size:14.96000004px;font-family:ZapfDingbats;-inkscape-font-specification:ZapfDingbats;writing-mode:lr-tb;fill:#f8766d;fill-opacity:1;fill-rule:nonzero;stroke:#f8766d;stroke-width:0.75;stroke-linecap:round;stroke-linejoin:round;stroke-miterlimit:10;stroke-dasharray:none;stroke-opacity:1"
           id="text172"><tspan
             x="0"
             y="0"
             id="tspan170"></tspan></text>
<text
           transform="matrix(1,0,0,-1,91.74,282.65)"
           style="font-variant:normal;font-weight:normal;font-size:14.96000004px;font-family:ZapfDingbats;-inkscape-font-specification:ZapfDingbats;writing-mode:lr-tb;fill:#f8766d;fill-opacity:1;fill-rule:nonzero;stroke:#f8766d;stroke-width:0.75;stroke-linecap:round;stroke-linejoin:round;stroke-miterlimit:10;stroke-dasharray:none;stroke-opacity:1"
           id="text176"><tspan
             x="0"
             y="0"
             id="tspan174"></tspan></text>
<text
           transform="matrix(1,0,0,-1,80.94,299.21)"
           style="font-variant:normal;font-weight:normal;font-size:14.96000004px;font-family:ZapfDingbats;-inkscape-font-specification:ZapfDingbats;writing-mode:lr-tb;fill:#f8766d;fill-opacity:1;fill-rule:nonzero;stroke:#f8766d;stroke-width:0.75;stroke-linecap:round;stroke-linejoin:round;stroke-miterlimit:10;stroke-dasharray:none;stroke-opacity:1"
           id="text180"><tspan
             x="0"
             y="0"
             id="tspan178"></tspan></text>
<text
           transform="matrix(1,0,0,-1,91.74,299.21)"
           style="font-variant:normal;font-weight:normal;font-size:14.96000004px;font-family:ZapfDingbats;-inkscape-font-specification:ZapfDingbats;writing-mode:lr-tb;fill:#f8766d;fill-opacity:1;fill-rule:nonzero;stroke:#f8766d;stroke-width:0.75;stroke-linecap:round;stroke-linejoin:round;stroke-miterlimit:10;stroke-dasharray:none;stroke-opacity:1"
           id="text184"><tspan
             x="0"
             y="0"
             id="tspan182"></tspan></text>
<text
           transform="matrix(1,0,0,-1,80.94,316.4)"
           style="font-variant:normal;font-weight:normal;font-size:14.96000004px;font-family:ZapfDingbats;-inkscape-font-specification:ZapfDingbats;writing-mode:lr-tb;fill:#f8766d;fill-opacity:1;fill-rule:nonzero;stroke:#f8766d;stroke-width:0.75;stroke-linecap:round;stroke-linejoin:round;stroke-miterlimit:10;stroke-dasharray:none;stroke-opacity:1"
           id="text188"><tspan
             x="0"
             y="0"
             id="tspan186"></tspan></text>
<text
           transform="matrix(1,0,0,-1,91.74,316.4)"
           style="font-variant:normal;font-weight:normal;font-size:14.96000004px;font-family:ZapfDingbats;-inkscape-font-specification:ZapfDingbats;writing-mode:lr-tb;fill:#f8766d;fill-opacity:1;fill-rule:nonzero;stroke:#f8766d;stroke-width:0.75;stroke-linecap:round;stroke-linejoin:round;stroke-miterlimit:10;stroke-dasharray:none;stroke-opacity:1"
           id="text192"><tspan
             x="0"
             y="0"
             id="tspan190"></tspan></text>
<text
           transform="matrix(1,0,0,-1,75.53,327.64)"
           style="font-variant:normal;font-weight:normal;font-size:14.96000004px;font-family:ZapfDingbats;-inkscape-font-specification:ZapfDingbats;writing-mode:lr-tb;fill:#f8766d;fill-opacity:1;fill-rule:nonzero;stroke:#f8766d;stroke-width:0.75;stroke-linecap:round;stroke-linejoin:round;stroke-miterlimit:10;stroke-dasharray:none;stroke-opacity:1"
           id="text196"><tspan
             x="0"
             y="0"
             id="tspan194"></tspan></text>
<text
           transform="matrix(1,0,0,-1,86.34,327.64)"
           style="font-variant:normal;font-weight:normal;font-size:14.96000004px;font-family:ZapfDingbats;-inkscape-font-specification:ZapfDingbats;writing-mode:lr-tb;fill:#f8766d;fill-opacity:1;fill-rule:nonzero;stroke:#f8766d;stroke-width:0.75;stroke-linecap:round;stroke-linejoin:round;stroke-miterlimit:10;stroke-dasharray:none;stroke-opacity:1"
           id="text200"><tspan
             x="0"
             y="0"
             id="tspan198"></tspan></text>
<text
           transform="matrix(1,0,0,-1,97.14,327.64)"
           style="font-variant:normal;font-weight:normal;font-size:14.96000004px;font-family:ZapfDingbats;-inkscape-font-specification:ZapfDingbats;writing-mode:lr-tb;fill:#f8766d;fill-opacity:1;fill-rule:nonzero;stroke:#f8766d;stroke-width:0.75;stroke-linecap:round;stroke-linejoin:round;stroke-miterlimit:10;stroke-dasharray:none;stroke-opacity:1"
           id="text204"><tspan
             x="0"
             y="0"
             id="tspan202"></tspan></text>
<text
           transform="matrix(1,0,0,-1,86.34,349.56)"
           style="font-variant:normal;font-weight:normal;font-size:14.96000004px;font-family:ZapfDingbats;-inkscape-font-specification:ZapfDingbats;writing-mode:lr-tb;fill:#f8766d;fill-opacity:1;fill-rule:nonzero;stroke:#f8766d;stroke-width:0.75;stroke-linecap:round;stroke-linejoin:round;stroke-miterlimit:10;stroke-dasharray:none;stroke-opacity:1"
           id="text208"><tspan
             x="0"
             y="0"
             id="tspan206"></tspan></text>
<text
           transform="matrix(1,0,0,-1,86.34,364.65)"
           style="font-variant:normal;font-weight:normal;font-size:14.96000004px;font-family:ZapfDingbats;-inkscape-font-specification:ZapfDingbats;writing-mode:lr-tb;fill:#f8766d;fill-opacity:1;fill-rule:nonzero;stroke:#f8766d;stroke-width:0.75;stroke-linecap:round;stroke-linejoin:round;stroke-miterlimit:10;stroke-dasharray:none;stroke-opacity:1"
           id="text212"><tspan
             x="0"
             y="0"
             id="tspan210"></tspan></text>
<text
           transform="matrix(1,0,0,-1,86.34,378.19)"
           style="font-variant:normal;font-weight:normal;font-size:14.96000004px;font-family:ZapfDingbats;-inkscape-font-specification:ZapfDingbats;writing-mode:lr-tb;fill:#f8766d;fill-opacity:1;fill-rule:nonzero;stroke:#f8766d;stroke-width:0.75;stroke-linecap:round;stroke-linejoin:round;stroke-miterlimit:10;stroke-dasharray:none;stroke-opacity:1"
           id="text216"><tspan
             x="0"
             y="0"
             id="tspan214"></tspan></text>
<text
           transform="matrix(1,0,0,-1,170.2,107.7)"
           style="font-variant:normal;font-weight:normal;font-size:14.96000004px;font-family:ZapfDingbats;-inkscape-font-specification:ZapfDingbats;writing-mode:lr-tb;fill:#7cae00;fill-opacity:1;fill-rule:nonzero;stroke:#7cae00;stroke-width:0.75;stroke-linecap:round;stroke-linejoin:round;stroke-miterlimit:10;stroke-dasharray:none;stroke-opacity:1"
           id="text220"><tspan
             x="0"
             y="0"
             id="tspan218"></tspan></text>
<text
           transform="matrix(1,0,0,-1,181,107.7)"
           style="font-variant:normal;font-weight:normal;font-size:14.96000004px;font-family:ZapfDingbats;-inkscape-font-specification:ZapfDingbats;writing-mode:lr-tb;fill:#7cae00;fill-opacity:1;fill-rule:nonzero;stroke:#7cae00;stroke-width:0.75;stroke-linecap:round;stroke-linejoin:round;stroke-miterlimit:10;stroke-dasharray:none;stroke-opacity:1"
           id="text224"><tspan
             x="0"
             y="0"
             id="tspan222"></tspan></text>
<text
           transform="matrix(1,0,0,-1,175.6,156.67)"
           style="font-variant:normal;font-weight:normal;font-size:14.96000004px;font-family:ZapfDingbats;-inkscape-font-specification:ZapfDingbats;writing-mode:lr-tb;fill:#7cae00;fill-opacity:1;fill-rule:nonzero;stroke:#7cae00;stroke-width:0.75;stroke-linecap:round;stroke-linejoin:round;stroke-miterlimit:10;stroke-dasharray:none;stroke-opacity:1"
           id="text228"><tspan
             x="0"
             y="0"
             id="tspan226"></tspan></text>
<text
           transform="matrix(1,0,0,-1,170.2,176.23)"
           style="font-variant:normal;font-weight:normal;font-size:14.96000004px;font-family:ZapfDingbats;-inkscape-font-specification:ZapfDingbats;writing-mode:lr-tb;fill:#7cae00;fill-opacity:1;fill-rule:nonzero;stroke:#7cae00;stroke-width:0.75;stroke-linecap:round;stroke-linejoin:round;stroke-miterlimit:10;stroke-dasharray:none;stroke-opacity:1"
           id="text232"><tspan
             x="0"
             y="0"
             id="tspan230"></tspan></text>
<text
           transform="matrix(1,0,0,-1,181,176.23)"
           style="font-variant:normal;font-weight:normal;font-size:14.96000004px;font-family:ZapfDingbats;-inkscape-font-specification:ZapfDingbats;writing-mode:lr-tb;fill:#7cae00;fill-opacity:1;fill-rule:nonzero;stroke:#7cae00;stroke-width:0.75;stroke-linecap:round;stroke-linejoin:round;stroke-miterlimit:10;stroke-dasharray:none;stroke-opacity:1"
           id="text236"><tspan
             x="0"
             y="0"
             id="tspan234"></tspan></text>
<text
           transform="matrix(1,0,0,-1,175.6,205.08)"
           style="font-variant:normal;font-weight:normal;font-size:14.96000004px;font-family:ZapfDingbats;-inkscape-font-specification:ZapfDingbats;writing-mode:lr-tb;fill:#7cae00;fill-opacity:1;fill-rule:nonzero;stroke:#7cae00;stroke-width:0.75;stroke-linecap:round;stroke-linejoin:round;stroke-miterlimit:10;stroke-dasharray:none;stroke-opacity:1"
           id="text240"><tspan
             x="0"
             y="0"
             id="tspan238"></tspan></text>
<text
           transform="matrix(1,0,0,-1,264.87,103.09)"
           style="font-variant:normal;font-weight:normal;font-size:14.96000004px;font-family:ZapfDingbats;-inkscape-font-specification:ZapfDingbats;writing-mode:lr-tb;fill:#00bfc4;fill-opacity:1;fill-rule:nonzero;stroke:#00bfc4;stroke-width:0.75;stroke-linecap:round;stroke-linejoin:round;stroke-miterlimit:10;stroke-dasharray:none;stroke-opacity:1"
           id="text244"><tspan
             x="0"
             y="0"
             id="tspan242"></tspan></text>
<text
           transform="matrix(1,0,0,-1,264.87,141.08)"
           style="font-variant:normal;font-weight:normal;font-size:14.96000004px;font-family:ZapfDingbats;-inkscape-font-specification:ZapfDingbats;writing-mode:lr-tb;fill:#00bfc4;fill-opacity:1;fill-rule:nonzero;stroke:#00bfc4;stroke-width:0.75;stroke-linecap:round;stroke-linejoin:round;stroke-miterlimit:10;stroke-dasharray:none;stroke-opacity:1"
           id="text248"><tspan
             x="0"
             y="0"
             id="tspan246"></tspan></text>
<text
           transform="matrix(1,0,0,-1,264.87,162.06)"
           style="font-variant:normal;font-weight:normal;font-size:14.96000004px;font-family:ZapfDingbats;-inkscape-font-specification:ZapfDingbats;writing-mode:lr-tb;fill:#00bfc4;fill-opacity:1;fill-rule:nonzero;stroke:#00bfc4;stroke-width:0.75;stroke-linecap:round;stroke-linejoin:round;stroke-miterlimit:10;stroke-dasharray:none;stroke-opacity:1"
           id="text252"><tspan
             x="0"
             y="0"
             id="tspan250"></tspan></text>
<text
           transform="matrix(1,0,0,-1,354.13,54.17)"
           style="font-variant:normal;font-weight:normal;font-size:14.96000004px;font-family:ZapfDingbats;-inkscape-font-specification:ZapfDingbats;writing-mode:lr-tb;fill:#c77cff;fill-opacity:1;fill-rule:nonzero;stroke:#c77cff;stroke-width:0.75;stroke-linecap:round;stroke-linejoin:round;stroke-miterlimit:10;stroke-dasharray:none;stroke-opacity:1"
           id="text256"><tspan
             x="0"
             y="0"
             id="tspan254"></tspan></text>
<text
           transform="matrix(1,0,0,-1,354.13,84.03)"
           style="font-variant:normal;font-weight:normal;font-size:14.96000004px;font-family:ZapfDingbats;-inkscape-font-specification:ZapfDingbats;writing-mode:lr-tb;fill:#c77cff;fill-opacity:1;fill-rule:nonzero;stroke:#c77cff;stroke-width:0.75;stroke-linecap:round;stroke-linejoin:round;stroke-miterlimit:10;stroke-dasharray:none;stroke-opacity:1"
           id="text260"><tspan
             x="0"
             y="0"
             id="tspan258"></tspan></text>
<text
           transform="matrix(1,0,0,-1,354.13,97.2)"
           style="font-variant:normal;font-weight:normal;font-size:14.96000004px;font-family:ZapfDingbats;-inkscape-font-specification:ZapfDingbats;writing-mode:lr-tb;fill:#c77cff;fill-opacity:1;fill-rule:nonzero;stroke:#c77cff;stroke-width:0.75;stroke-linecap:round;stroke-linejoin:round;stroke-miterlimit:10;stroke-dasharray:none;stroke-opacity:1"
           id="text264"><tspan
             x="0"
             y="0"
             id="tspan262"></tspan></text>
<text
           transform="matrix(1,0,0,-1,354.13,109.22)"
           style="font-variant:normal;font-weight:normal;font-size:14.96000004px;font-family:ZapfDingbats;-inkscape-font-specification:ZapfDingbats;writing-mode:lr-tb;fill:#c77cff;fill-opacity:1;fill-rule:nonzero;stroke:#c77cff;stroke-width:0.75;stroke-linecap:round;stroke-linejoin:round;stroke-miterlimit:10;stroke-dasharray:none;stroke-opacity:1"
           id="text268"><tspan
             x="0"
             y="0"
             id="tspan266"></tspan></text>
<text
           transform="matrix(1,0,0,-1,354.13,155.24)"
           style="font-variant:normal;font-weight:normal;font-size:14.96000004px;font-family:ZapfDingbats;-inkscape-font-specification:ZapfDingbats;writing-mode:lr-tb;fill:#c77cff;fill-opacity:1;fill-rule:nonzero;stroke:#c77cff;stroke-width:0.75;stroke-linecap:round;stroke-linejoin:round;stroke-miterlimit:10;stroke-dasharray:none;stroke-opacity:1"
           id="text272"><tspan
             x="0"
             y="0"
             id="tspan270"></tspan></text>
<text
           transform="matrix(1,0,0,-1,354.13,166.21)"
           style="font-variant:normal;font-weight:normal;font-size:14.96000004px;font-family:ZapfDingbats;-inkscape-font-specification:ZapfDingbats;writing-mode:lr-tb;fill:#c77cff;fill-opacity:1;fill-rule:nonzero;stroke:#c77cff;stroke-width:0.75;stroke-linecap:round;stroke-linejoin:round;stroke-miterlimit:10;stroke-dasharray:none;stroke-opacity:1"
           id="text276"><tspan
             x="0"
             y="0"
             id="tspan274"></tspan></text>
<text
           transform="matrix(1,0,0,-1,354.13,199.86)"
           style="font-variant:normal;font-weight:normal;font-size:14.96000004px;font-family:ZapfDingbats;-inkscape-font-specification:ZapfDingbats;writing-mode:lr-tb;fill:#c77cff;fill-opacity:1;fill-rule:nonzero;stroke:#c77cff;stroke-width:0.75;stroke-linecap:round;stroke-linejoin:round;stroke-miterlimit:10;stroke-dasharray:none;stroke-opacity:1"
           id="text280"><tspan
             x="0"
             y="0"
             id="tspan278"></tspan></text>
<text
           transform="matrix(1,0,0,-1,130.47,404.24)"
           style="font-variant:normal;font-weight:normal;font-size:11px;font-family:Helvetica;-inkscape-font-specification:Helvetica;writing-mode:lr-tb;fill:#000000;fill-opacity:1;fill-rule:nonzero;stroke:none"
           id="text284"><tspan
             x="0 4.2789998 8.5579996"
             y="0"
             sodipodi:role="line"
             id="tspan282">***</tspan></text>
<path
           d="m 92.26,389.86 v 9.73"
           style="fill:none;stroke:#000000;stroke-width:0.63999999;stroke-linecap:round;stroke-linejoin:round;stroke-miterlimit:10;stroke-dasharray:none;stroke-opacity:1"
           id="path286"
           inkscape:connector-curvature="0" /><path
           d="m 92.26,399.59 h 89.26"
           style="fill:none;stroke:#000000;stroke-width:0.63999999;stroke-linecap:round;stroke-linejoin:round;stroke-miterlimit:10;stroke-dasharray:none;stroke-opacity:1"
           id="path288"
           inkscape:connector-curvature="0" /><path
           d="m 181.52,399.59 v -9.73"
           style="fill:none;stroke:#000000;stroke-width:0.63999999;stroke-linecap:round;stroke-linejoin:round;stroke-miterlimit:10;stroke-dasharray:none;stroke-opacity:1"
           id="path290"
           inkscape:connector-curvature="0" /><text
           transform="matrix(1,0,0,-1,177.25,443.13)"
           style="font-variant:normal;font-weight:normal;font-size:11px;font-family:Helvetica;-inkscape-font-specification:Helvetica;writing-mode:lr-tb;fill:#000000;fill-opacity:1;fill-rule:nonzero;stroke:none"
           id="text294"><tspan
             x="0 4.2789998"
             y="0"
             sodipodi:role="line"
             id="tspan292">**</tspan></text>
<path
           d="m 92.26,428.75 v 9.72"
           style="fill:none;stroke:#000000;stroke-width:0.63999999;stroke-linecap:round;stroke-linejoin:round;stroke-miterlimit:10;stroke-dasharray:none;stroke-opacity:1"
           id="path296"
           inkscape:connector-curvature="0" /><path
           d="M 92.26,438.47 H 270.79"
           style="fill:none;stroke:#000000;stroke-width:0.63999999;stroke-linecap:round;stroke-linejoin:round;stroke-miterlimit:10;stroke-dasharray:none;stroke-opacity:1"
           id="path298"
           inkscape:connector-curvature="0" /><path
           d="m 270.79,438.47 v -9.72"
           style="fill:none;stroke:#000000;stroke-width:0.63999999;stroke-linecap:round;stroke-linejoin:round;stroke-miterlimit:10;stroke-dasharray:none;stroke-opacity:1"
           id="path300"
           inkscape:connector-curvature="0" /><text
           transform="matrix(1,0,0,-1,219.74,482.01)"
           style="font-variant:normal;font-weight:normal;font-size:11px;font-family:Helvetica;-inkscape-font-specification:Helvetica;writing-mode:lr-tb;fill:#000000;fill-opacity:1;fill-rule:nonzero;stroke:none"
           id="text304"><tspan
             x="0 4.2789998 8.5579996"
             y="0"
             sodipodi:role="line"
             id="tspan302">***</tspan></text>
<path
           d="m 92.26,467.63 v 9.72"
           style="fill:none;stroke:#000000;stroke-width:0.63999999;stroke-linecap:round;stroke-linejoin:round;stroke-miterlimit:10;stroke-dasharray:none;stroke-opacity:1"
           id="path306"
           inkscape:connector-curvature="0" /><path
           d="M 92.26,477.35 H 360.05"
           style="fill:none;stroke:#000000;stroke-width:0.63999999;stroke-linecap:round;stroke-linejoin:round;stroke-miterlimit:10;stroke-dasharray:none;stroke-opacity:1"
           id="path308"
           inkscape:connector-curvature="0" /><path
           d="m 360.05,477.35 v -9.72"
           style="fill:none;stroke:#000000;stroke-width:0.63999999;stroke-linecap:round;stroke-linejoin:round;stroke-miterlimit:10;stroke-dasharray:none;stroke-opacity:1"
           id="path310"
           inkscape:connector-curvature="0" /></g></g><g
       id="g312" /><g
       id="g314" /><g
       id="g316" /><g
       id="g318" /><g
       id="g320" /><g
       id="g322" /><g
       id="g324" /><g
       id="g326" /><g
       id="g328" /><g
       id="g330" /><g
       id="g332" /><g
       id="g334" /><g
       id="g336" /><g
       id="g338" /><g
       id="g340" /><g
       id="g342"><text
         transform="matrix(1,0,0,-1,28.77,43.74)"
         style="font-variant:normal;font-weight:normal;font-size:9px;font-family:Helvetica;-inkscape-font-specification:Helvetica;writing-mode:lr-tb;fill:#4d4d4d;fill-opacity:1;fill-rule:nonzero;stroke:none"
         id="text346"><tspan
           x="0"
           y="0"
           id="tspan344">0</tspan></text>
<text
         transform="matrix(1,0,0,-1,18.76,191.83)"
         style="font-variant:normal;font-weight:normal;font-size:9px;font-family:Helvetica;-inkscape-font-specification:Helvetica;writing-mode:lr-tb;fill:#4d4d4d;fill-opacity:1;fill-rule:nonzero;stroke:none"
         id="text350"><tspan
           x="0 5.0040002 10.008"
           y="0"
           sodipodi:role="line"
           id="tspan348">200</tspan></text>
<text
         transform="matrix(1,0,0,-1,18.76,339.92)"
         style="font-variant:normal;font-weight:normal;font-size:9px;font-family:Helvetica;-inkscape-font-specification:Helvetica;writing-mode:lr-tb;fill:#4d4d4d;fill-opacity:1;fill-rule:nonzero;stroke:none"
         id="text354"><tspan
           x="0 5.0040002 10.008"
           y="0"
           sodipodi:role="line"
           id="tspan352">400</tspan></text>
<text
         transform="matrix(1,0,0,-1,18.76,488.01)"
         style="font-variant:normal;font-weight:normal;font-size:9px;font-family:Helvetica;-inkscape-font-specification:Helvetica;writing-mode:lr-tb;fill:#4d4d4d;fill-opacity:1;fill-rule:nonzero;stroke:none"
         id="text358"><tspan
           x="0 5.0040002 10.008"
           y="0"
           sodipodi:role="line"
           id="tspan356">600</tspan></text>
</g><g
       id="g360" /><g
       id="g362" /><g
       id="g364" /><g
       id="g366" /><g
       id="g368" /><g
       id="g370" /><g
       id="g372" /><g
       id="g374" /><g
       id="g376" /><g
       id="g378" /><g
       id="g380" /><g
       id="g382" /><g
       id="g384" /><g
       id="g386"><text
         transform="matrix(1,0,0,-1,78.26,21.4)"
         style="font-variant:normal;font-weight:normal;font-size:9px;font-family:Helvetica;-inkscape-font-specification:Helvetica;writing-mode:lr-tb;fill:#4d4d4d;fill-opacity:1;fill-rule:nonzero;stroke:none"
         id="text390"><tspan
           x="0 6.4980001 12.996 18 23.004"
           y="0"
           sodipodi:role="line"
           id="tspan388">HDneg</tspan></text>
<text
         transform="matrix(1,0,0,-1,161.41,21.4)"
         style="font-variant:normal;font-weight:normal;font-size:9px;font-family:Helvetica;-inkscape-font-specification:Helvetica;writing-mode:lr-tb;fill:#4d4d4d;fill-opacity:1;fill-rule:nonzero;stroke:none"
         id="text394"><tspan
           x="0 6.4980001 12.96 18.962999 24.966 29.969999 35.226002"
           y="0"
           sodipodi:role="line"
           id="tspan392">HOXA59</tspan></text>
<text
         transform="matrix(1,0,0,-1,260.03,21.4)"
         style="font-variant:normal;font-weight:normal;font-size:9px;font-family:Helvetica;-inkscape-font-specification:Helvetica;writing-mode:lr-tb;fill:#4d4d4d;fill-opacity:1;fill-rule:nonzero;stroke:none"
         id="text398"><tspan
           x="0 5.4990001 10.503 16.506001"
           y="0"
           sodipodi:role="line"
           id="tspan396">TLX1</tspan></text>
<text
         transform="matrix(1,0,0,-1,349.3,21.4)"
         style="font-variant:normal;font-weight:normal;font-size:9px;font-family:Helvetica;-inkscape-font-specification:Helvetica;writing-mode:lr-tb;fill:#4d4d4d;fill-opacity:1;fill-rule:nonzero;stroke:none"
         id="text402"><tspan
           x="0 5.4990001 10.503 16.506001"
           y="0"
           sodipodi:role="line"
           id="tspan400">TLX3</tspan></text>
</g><g
       id="g404" /><g
       id="g406" /><g
       id="g408" /><g
       id="g410" /><g
       id="g412" /><g
       id="g414"><text
         transform="matrix(1,0,0,-1,186.83,8.12)"
         style="font-variant:normal;font-weight:normal;font-size:11px;font-family:Helvetica;-inkscape-font-specification:Helvetica;writing-mode:lr-tb;fill:#000000;fill-opacity:1;fill-rule:nonzero;stroke:none"
         id="text418"><tspan
           x="0 6.1160002 12.232 18.348 23.628 29.743999 38.907001 41.348999 47.465 50.522999 56.639 60.301998 66.417999 72.533997"
           y="0"
           sodipodi:role="line"
           id="tspan416">Leukemia group</tspan></text>
</g><g
       id="g420" /><g
       id="g422"><text
         transform="matrix(0,1,1,0,13.38,150.51)"
         style="font-variant:normal;font-weight:normal;font-size:11px;font-family:Helvetica;-inkscape-font-specification:Helvetica;writing-mode:lr-tb;fill:#000000;fill-opacity:1;fill-rule:nonzero;stroke:none"
         id="text426"><tspan
           x="0 8.5579996 14.674 20.790001 26.906 29.964001 32.405998 34.848 40.964001 47.388 53.504002 59.619999 63.557999 72.721001 78.836998 81.278999 83.721001 89.056 95.171997 101.288 104.346 112.288 118.404 125.741 131.85699 137.97301 144.089 149.589 152.647 158.147 160.589 166.705 172.821 178.937 181.379 184.437 186.879 192.995 196.05299 203.39 209.506 211.948 218.064 224.17999"
           y="0"
           sodipodi:role="line"
           id="tspan424">Quantilenormalized H3K27ac signal in Ealpha</tspan></text>
</g><g
       id="g428" /><g
       id="g430" /><g
       id="g432" /><g
       id="g434" /><g
       id="g436" /><g
       id="g438" /><g
       id="g440" /><g
       id="g442" /><g
       id="g444" /><g
       id="g446" /><g
       id="g448" /><g
       id="g450"><text
         transform="matrix(1,0,0,-1,430.05,299.01)"
         style="font-variant:normal;font-weight:normal;font-size:11px;font-family:Helvetica;-inkscape-font-specification:Helvetica;writing-mode:lr-tb;fill:#000000;fill-opacity:1;fill-rule:nonzero;stroke:none"
         id="text454"><tspan
           x="0 6.1160002 9.7790003 15.895 22.011"
           y="0"
           sodipodi:role="line"
           id="tspan452">group</tspan></text>
</g><g
       id="g456" /><g
       id="g458" /><g
       id="g460" /><g
       id="g462" /><g
       id="g464"><text
         transform="matrix(1,0,0,-1,435.14,280.45)"
         style="font-variant:normal;font-weight:normal;font-size:8.97999954px;font-family:ZapfDingbats;-inkscape-font-specification:ZapfDingbats;writing-mode:lr-tb;fill:#f8766d;fill-opacity:1;fill-rule:nonzero;stroke:#f8766d;stroke-width:0.75;stroke-linecap:round;stroke-linejoin:round;stroke-miterlimit:10;stroke-dasharray:none;stroke-opacity:1"
         id="text468"><tspan
           x="0"
           y="0"
           id="tspan466"></tspan></text>
</g><g
       id="g470" /><g
       id="g472" /><g
       id="g474" /><g
       id="g476"><text
         transform="matrix(1,0,0,-1,435.14,263.17)"
         style="font-variant:normal;font-weight:normal;font-size:8.97999954px;font-family:ZapfDingbats;-inkscape-font-specification:ZapfDingbats;writing-mode:lr-tb;fill:#7cae00;fill-opacity:1;fill-rule:nonzero;stroke:#7cae00;stroke-width:0.75;stroke-linecap:round;stroke-linejoin:round;stroke-miterlimit:10;stroke-dasharray:none;stroke-opacity:1"
         id="text480"><tspan
           x="0"
           y="0"
           id="tspan478"></tspan></text>
</g><g
       id="g482" /><g
       id="g484" /><g
       id="g486" /><g
       id="g488"><text
         transform="matrix(1,0,0,-1,435.14,245.89)"
         style="font-variant:normal;font-weight:normal;font-size:8.97999954px;font-family:ZapfDingbats;-inkscape-font-specification:ZapfDingbats;writing-mode:lr-tb;fill:#00bfc4;fill-opacity:1;fill-rule:nonzero;stroke:#00bfc4;stroke-width:0.75;stroke-linecap:round;stroke-linejoin:round;stroke-miterlimit:10;stroke-dasharray:none;stroke-opacity:1"
         id="text492"><tspan
           x="0"
           y="0"
           id="tspan490"></tspan></text>
</g><g
       id="g494" /><g
       id="g496" /><g
       id="g498" /><g
       id="g500"><text
         transform="matrix(1,0,0,-1,435.14,228.61)"
         style="font-variant:normal;font-weight:normal;font-size:8.97999954px;font-family:ZapfDingbats;-inkscape-font-specification:ZapfDingbats;writing-mode:lr-tb;fill:#c77cff;fill-opacity:1;fill-rule:nonzero;stroke:#c77cff;stroke-width:0.75;stroke-linecap:round;stroke-linejoin:round;stroke-miterlimit:10;stroke-dasharray:none;stroke-opacity:1"
         id="text504"><tspan
           x="0"
           y="0"
           id="tspan502"></tspan></text>
</g><g
       id="g506" /><g
       id="g508" /><g
       id="g510" /><g
       id="g512"><text
         transform="matrix(1,0,0,-1,452.81,280.34)"
         style="font-variant:normal;font-weight:normal;font-size:9px;font-family:Helvetica;-inkscape-font-specification:Helvetica;writing-mode:lr-tb;fill:#000000;fill-opacity:1;fill-rule:nonzero;stroke:none"
         id="text516"><tspan
           x="0 6.4980001 12.996 18 23.004"
           y="0"
           sodipodi:role="line"
           id="tspan514">HDneg</tspan></text>
</g><g
       id="g518" /><g
       id="g520" /><g
       id="g522" /><g
       id="g524" /><g
       id="g526"><text
         transform="matrix(1,0,0,-1,452.81,263.06)"
         style="font-variant:normal;font-weight:normal;font-size:9px;font-family:Helvetica;-inkscape-font-specification:Helvetica;writing-mode:lr-tb;fill:#000000;fill-opacity:1;fill-rule:nonzero;stroke:none"
         id="text530"><tspan
           x="0 6.4980001 12.96 18.962999 24.966 29.969999 35.226002"
           y="0"
           sodipodi:role="line"
           id="tspan528">HOXA59</tspan></text>
</g><g
       id="g532" /><g
       id="g534" /><g
       id="g536" /><g
       id="g538" /><g
       id="g540"><text
         transform="matrix(1,0,0,-1,452.81,245.78)"
         style="font-variant:normal;font-weight:normal;font-size:9px;font-family:Helvetica;-inkscape-font-specification:Helvetica;writing-mode:lr-tb;fill:#000000;fill-opacity:1;fill-rule:nonzero;stroke:none"
         id="text544"><tspan
           x="0 5.4990001 10.503 16.506001"
           y="0"
           sodipodi:role="line"
           id="tspan542">TLX1</tspan></text>
</g><g
       id="g546" /><g
       id="g548" /><g
       id="g550" /><g
       id="g552" /><g
       id="g554"><text
         transform="matrix(1,0,0,-1,452.81,228.5)"
         style="font-variant:normal;font-weight:normal;font-size:9px;font-family:Helvetica;-inkscape-font-specification:Helvetica;writing-mode:lr-tb;fill:#000000;fill-opacity:1;fill-rule:nonzero;stroke:none"
         id="text558"><tspan
           x="0 5.4990001 10.503 16.506001"
           y="0"
           sodipodi:role="line"
           id="tspan556">TLX3</tspan></text>
</g><g
       id="g560" /><g
       id="g562" /><g
       id="g564" /><g
       id="g566" /><g
       id="g568" /><g
       id="g570" /><g
       id="g572" /><g
       id="g574" /><g
       id="g576" /><g
       id="g578" /><g
       id="g580" /><g
       id="g582" /><g
       id="g584" /><rect
       style="fill:#0000ff;fill-rule:evenodd;stroke-width:0.75"
       id="rect1391"
       width="702.61017"
       height="698.33899"
       x="-1054.983"
       y="-738.91528"
       transform="scale(1,-1)"
       rx="35.237328"
       ry="35.237328" /></g></svg>