<?xml version="1.0" encoding="UTF-8" standalone="no"?>
<!-- Created with Inkscape (http://www.inkscape.org/) -->

<svg
   xmlns:dc="http://purl.org/dc/elements/1.1/"
   xmlns:cc="http://creativecommons.org/ns#"
   xmlns:rdf="http://www.w3.org/1999/02/22-rdf-syntax-ns#"
   xmlns:svg="http://www.w3.org/2000/svg"
   xmlns="http://www.w3.org/2000/svg"
   xmlns:sodipodi="http://sodipodi.sourceforge.net/DTD/sodipodi-0.dtd"
   xmlns:inkscape="http://www.inkscape.org/namespaces/inkscape"
   width="35.804543mm"
   height="35.804543mm"
   viewBox="0 0 35.804542 35.804542"
   version="1.1"
   id="svg1515"
   inkscape:version="0.92.3 (2405546, 2018-03-11)"
   sodipodi:docname="sample.svg">
  <defs
     id="defs1509">
    <clipPath
       clipPathUnits="userSpaceOnUse"
       id="clipPath2196">
      <rect
         style="fill:#fef4f1;fill-opacity:1;stroke:#fefefe;stroke-width:1.27924407;stroke-miterlimit:4;stroke-dasharray:2.55848831, 1.27924415;stroke-dashoffset:0;stroke-opacity:1"
         id="rect2198"
         width="42.783199"
         height="38.266144"
         x="78.590111"
         y="193.66969" />
    </clipPath>
  </defs>
  <sodipodi:namedview
     id="base"
     pagecolor="#ffffff"
     bordercolor="#666666"
     borderopacity="1.0"
     inkscape:pageopacity="0.0"
     inkscape:pageshadow="2"
     inkscape:zoom="2.8"
     inkscape:cx="145.93088"
     inkscape:cy="160.71406"
     inkscape:document-units="mm"
     inkscape:current-layer="layer1"
     showgrid="false"
     fit-margin-top="0"
     fit-margin-left="0"
     fit-margin-right="0"
     fit-margin-bottom="0"
     inkscape:window-width="1920"
     inkscape:window-height="1052"
     inkscape:window-x="1920"
     inkscape:window-y="0"
     inkscape:window-maximized="1" />
  <metadata
     id="metadata1512">
    <rdf:RDF>
      <cc:Work
         rdf:about="">
        <dc:format>image/svg+xml</dc:format>
        <dc:type
           rdf:resource="http://purl.org/dc/dcmitype/StillImage" />
        <dc:title></dc:title>
      </cc:Work>
    </rdf:RDF>
  </metadata>
  <g
     inkscape:label="Layer 1"
     inkscape:groupmode="layer"
     id="layer1"
     transform="translate(-102.09296,-56.987956)">
    <g
       id="g2242"
       transform="matrix(1.311677,0,0,1.311677,-78.431423,-219.939)">
      <circle
         r="13.148509"
         cy="224.77274"
         cx="151.27707"
         id="path2202"
         style="fill:#000000;fill-opacity:1;stroke:#060606;stroke-width:0.99974996;stroke-miterlimit:4;stroke-dasharray:none;stroke-dashoffset:0;stroke-opacity:1" />
      <g
         transform="translate(87.083754,56.999813)"
         id="g2221">
        <path
           inkscape:connector-curvature="0"
           id="path662-3"
           style="fill:#ffffff;fill-opacity:1;fill-rule:nonzero;stroke:none"
           d="m 71.105,169.99153 -10.421,-10.422 0.14,-0.145 c 0.176,-0.175 0.176,-0.461 0,-0.636 l -0.066,-0.071 c -0.176,-0.175 -0.461,-0.175 -0.637,0 l -5.07,5.071 c -0.176,0.175 -0.176,0.461 0,0.636 l 0.07,0.071 c 0.176,0.172 0.461,0.172 0.637,0 l 0.144,-0.145 10.422,10.422 c 1.321,1.316 3.461,1.316 4.781,0 1.321,-1.32 1.321,-3.461 0,-4.781 z m -9.195,-1.028 -5.312,-5.308 3.422,-3.422 5.308,5.309 z" />
        <g
           id="g2194"
           transform="matrix(0.15282453,0.14063536,-0.14063536,0.15282453,81.354607,124.01826)"
           clip-path="url(#clipPath2196)">
          <g
             id="g40"
             transform="rotate(90,-42.47444,1.7616127)">
            <path
               d="m 159.352,-163.434 17.289,-0.175"
               style="fill:none;stroke:#000000;stroke-width:1.301;stroke-linecap:butt;stroke-linejoin:miter;stroke-miterlimit:4;stroke-dasharray:none;stroke-opacity:1"
               id="path42"
               inkscape:connector-curvature="0" />
          </g>
          <g
             id="g44"
             transform="rotate(90,-42.47444,1.7616127)">
            <path
               d="m 159.047,-159.105 18.637,-0.176"
               style="fill:none;stroke:#000000;stroke-width:1.301;stroke-linecap:butt;stroke-linejoin:miter;stroke-miterlimit:4;stroke-dasharray:none;stroke-opacity:1"
               id="path46"
               inkscape:connector-curvature="0" />
          </g>
          <g
             id="g48"
             transform="rotate(90,-42.47444,1.7616127)">
            <path
               d="m 158.984,-154.613 18.633,-0.172"
               style="fill:none;stroke:#000000;stroke-width:1.301;stroke-linecap:butt;stroke-linejoin:miter;stroke-miterlimit:4;stroke-dasharray:none;stroke-opacity:1"
               id="path50"
               inkscape:connector-curvature="0" />
          </g>
          <g
             id="g52"
             transform="rotate(90,-42.47444,1.7616127)">
            <path
               d="m 160.633,-150.203 14.148,-0.172"
               style="fill:none;stroke:#000000;stroke-width:1.301;stroke-linecap:butt;stroke-linejoin:miter;stroke-miterlimit:4;stroke-dasharray:none;stroke-opacity:1"
               id="path54"
               inkscape:connector-curvature="0" />
          </g>
          <g
             id="g56"
             transform="rotate(90,-42.47444,1.7616127)">
            <path
               d="m 158.887,-131.391 19.097,0.258"
               style="fill:none;stroke:#000000;stroke-width:1.301;stroke-linecap:butt;stroke-linejoin:miter;stroke-miterlimit:4;stroke-dasharray:none;stroke-opacity:1"
               id="path58"
               inkscape:connector-curvature="0" />
          </g>
          <g
             id="g60"
             transform="rotate(90,-42.47444,1.7616127)">
            <path
               d="m 157.711,-126.781 20.379,0.094"
               style="fill:none;stroke:#000000;stroke-width:1.301;stroke-linecap:butt;stroke-linejoin:miter;stroke-miterlimit:4;stroke-dasharray:none;stroke-opacity:1"
               id="path62"
               inkscape:connector-curvature="0" />
          </g>
          <g
             id="g64"
             transform="rotate(90,-42.47444,1.7616127)">
            <path
               d="m 161.219,-136 14.558,0.094"
               style="fill:none;stroke:#000000;stroke-width:1.301;stroke-linecap:butt;stroke-linejoin:miter;stroke-miterlimit:4;stroke-dasharray:none;stroke-opacity:1"
               id="path66"
               inkscape:connector-curvature="0" />
          </g>
          <path
             d="m 128.41617,205.22805 -0.399,-0.265 c -5.535,-3.586 -10.441,-4.012 -14.668,-2.469 -4.05,1.476 -7.421,4.695 -10.472,8.367 -3.851997,-4.285 -7.437997,-6.957 -10.812997,-8.234 -3.492,-1.325 -6.765,-1.2 -9.726,-0.082 l -0.559,0.214 c 0.004,0.004 -0.035,1.743 -0.035,1.743 2.77,-1.231 6.875,-1.356 9.707,-0.282 3.047,1.153 6.453,3.649 10.202997,7.84 -2.694997,3.016 -5.268997,6.055 -8.128997,7.836 -2.855,1.778 -6.683,2 -10.789,0.293 v -0.027 l -0.957,-0.289 v 1.832 l 0.504,0.211 c 4.805,2.187 8.824,1.488 12.145,-0.582 3.238,-2.02 5.901997,-5.235 8.608997,-8.266 5.164,6.656 9.633,9.695 13.766,10.152 4.714,-0.031 8.675,-2.414 11.613,-4.918 z m -1.195,11.934 c -3.106,2.636 -6.735,4.742 -10.231,4.355 -3.504,-0.386 -7.652,-3.047 -12.73,-9.644 2.941,-3.528 6.109,-6.489 9.672,-7.785 3.652,-1.332 8.105,-1.192 13.128,1.937 z"
             style="fill:#000000;fill-opacity:1;fill-rule:nonzero;stroke:none"
             id="path194-6"
             inkscape:connector-curvature="0" />
        </g>
      </g>
    </g>
  </g>
</svg>
